<svg width="256" height="256" viewBox="0 0 256 256" fill="none" xmlns="http://www.w3.org/2000/svg"><g clip-path="url(#clip0_2_3667)"><path d="M128 256c70.692 0 128-57.308 128-128C256 57.308 198.692 0 128 0 57.308 0 0 57.307 0 128c0 70.692 57.307 128 128 128z" fill="#fff"/><path d="M152.901 48.902a55.45 55.45 0 00-54.784 49.213 55.102 55.102 0 00-46.075 36.458 55.11 55.11 0 0039.772 72.073 55.107 55.107 0 0066.987-47.844 55.104 55.104 0 0049.171-57.748 55.105 55.105 0 00-55.071-52.152zm42.194 61.341a42.93 42.93 0 01-12.081 23.883 42.93 42.93 0 01-23.883 12.081v-35.964h35.964zM61.822 146.67a42.922 42.922 0 0135.966-35.968v35.968H61.822zm84.391 12.457a42.654 42.654 0 01-84.392 0h84.392zm.46-48.884v36.427h-36.429v-36.427h36.429zm48.424-12.457h-84.393a42.654 42.654 0 0184.392 0h.001z" fill="#26DDF9"/><path d="M128 256a129.012 129.012 0 01-25.8-2.6 127.297 127.297 0 01-45.769-19.26 128.372 128.372 0 01-46.375-56.316A127.36 127.36 0 012.6 153.8a129.248 129.248 0 010-51.593 127.3 127.3 0 0119.26-45.773 128.373 128.373 0 0156.317-46.375A127.357 127.357 0 01102.2 2.6a129.248 129.248 0 0151.593 0 127.298 127.298 0 0145.77 19.26 128.376 128.376 0 0146.375 56.316A127.332 127.332 0 01253.4 102.2a129.26 129.26 0 010 51.593 127.297 127.297 0 01-19.26 45.77 128.374 128.374 0 01-56.316 46.375A127.321 127.321 0 01153.8 253.4 129.005 129.005 0 01128 256zm0-252a124.918 124.918 0 00-24.99 2.519 123.32 123.32 0 00-44.34 18.658 124.365 124.365 0 00-44.926 54.557 123.38 123.38 0 00-7.225 23.276 125.21 125.21 0 000 49.981 123.325 123.325 0 0018.658 44.339 124.362 124.362 0 0054.556 44.926 123.332 123.332 0 0023.276 7.225 125.21 125.21 0 0049.981 0 123.31 123.31 0 0044.339-18.658 124.364 124.364 0 0044.926-54.556 123.33 123.33 0 007.225-23.276 125.21 125.21 0 000-49.981 123.327 123.327 0 00-18.657-44.34 124.365 124.365 0 00-54.556-44.926 123.374 123.374 0 00-23.277-7.225A124.914 124.914 0 00128 4z" fill="#26DDF9"/></g><defs><clipPath id="clip0_2_3667"><path fill="#fff" d="M0 0h256v256H0z"/></clipPath></defs></svg>