<svg width="20" height="20" viewBox="0 0 20 20" fill="none" xmlns="http://www.w3.org/2000/svg"><path d="M15.545 5.104a13.194 13.194 0 00-3.257-1.01.05.05 0 00-.052.024c-.141.25-.297.577-.406.833a12.181 12.181 0 00-3.658 0 8.427 8.427 0 00-.412-.833.051.051 0 00-.052-.024 13.157 13.157 0 00-3.257 1.01.047.047 0 00-.021.018c-2.074 3.099-2.643 6.122-2.364 9.107a.06.06 0 00.02.038 13.268 13.268 0 003.996 2.02.052.052 0 00.056-.02c.308-.42.582-.863.818-1.329a.05.05 0 00-.028-.07 8.725 8.725 0 01-1.248-.595.051.051 0 01-.005-.085c.084-.063.168-.129.248-.195a.05.05 0 01.051-.007c2.619 1.196 5.454 1.196 8.041 0a.05.05 0 01.053.007c.08.066.164.132.248.195a.051.051 0 01-.004.085c-.399.233-.813.43-1.249.594a.051.051 0 00-.027.071c.24.466.514.909.817 1.329a.05.05 0 00.056.02 13.225 13.225 0 004.001-2.02.051.051 0 00.021-.037c.334-3.452-.559-6.45-2.366-9.107a.04.04 0 00-.02-.02zM7.347 12.41c-.789 0-1.438-.723-1.438-1.612 0-.89.637-1.613 1.438-1.613.807 0 1.45.73 1.438 1.613 0 .889-.637 1.612-1.438 1.612zm5.316 0c-.788 0-1.438-.723-1.438-1.612 0-.89.637-1.613 1.438-1.613.807 0 1.45.73 1.438 1.613 0 .889-.63 1.612-1.438 1.612z" fill="#fff"/></svg>