<svg fill="none" height="13" viewBox="0 0 63 13" width="63" xmlns="http://www.w3.org/2000/svg"><path d="M28.488 12.095l-4.8-10.94a.913.913 0 01-.003-.64.82.82 0 01.18-.28.854.854 0 01.64-.233.9.9 0 01.495.155 1 1 0 01.342.41l4.56 10.708L34.462.567a1 1 0 01.342-.41.9.9 0 01.495-.155.854.854 0 01.636.233.828.828 0 01.236.61.908.908 0 01-.059.31l-4.8 10.94a1.285 1.285 0 01-1.2.842h-.424a1.285 1.285 0 01-1.2-.842zm8.824.501a.777.777 0 01-.247-.587V.938a.816.816 0 01.247-.6.844.844 0 01.624-.242h7.789a.8.8 0 01.589.233.724.724 0 01.247.554.685.685 0 01-.247.543.857.857 0 01-.59.22h-6.892v4.03h6.2a.8.8 0 01.589.234.74.74 0 01.247.554.685.685 0 01-.247.543.857.857 0 01-.59.22h-6.2v4.054h6.894a.8.8 0 01.589.233.724.724 0 01.247.554.685.685 0 01-.247.543.857.857 0 01-.59.22h-7.788a.799.799 0 01-.624-.235zm-11.634-.811l-4.8-10.94a1.285 1.285 0 00-1.2-.842h-.424a1.285 1.285 0 00-1.2.842L15.97 5.61h-1.58a.841.841 0 00-.86.809v.01a.841.841 0 00.86.81h.848l-1.991 4.545a.912.912 0 00-.004.639c.04.105.102.2.18.28a.855.855 0 00.637.234.9.9 0 00.495-.155 1 1 0 00.342-.41l2.193-5.133h1.508a.841.841 0 00.86-.81V6.41a.84.84 0 00-.86-.81h-.808l1.685-3.934 4.56 10.708c.074.165.193.306.342.41a.9.9 0 00.494.155.853.853 0 00.636-.233.828.828 0 00.236-.61.698.698 0 00-.064-.31zm-13.186 0L7.696.844A1.285 1.285 0 006.494.002H6.07a1.285 1.285 0 00-1.2.842L2.782 5.61H1.2a.841.841 0 00-.86.809v.01a.841.841 0 00.86.81h.85L.06 11.785a.91.91 0 00-.004.639c.04.105.102.2.18.28a.854.854 0 00.637.234.9.9 0 00.495-.155 1 1 0 00.342-.41L3.9 7.24h1.52a.841.841 0 00.86-.81v-.02a.841.841 0 00-.86-.807h-.812l1.674-3.937 4.56 10.708a1 1 0 00.342.41.9.9 0 00.495.155.853.853 0 00.636-.233.826.826 0 00.236-.61.701.701 0 00-.06-.31zM53.35 9.558l2.231-6.45h1.128l-2.901 7.82h-.913L50 3.108h1.123zm9.272 1.37h-5.124v-.714l2.707-3.008c.316-.339.594-.71.83-1.109.149-.271.227-.575.228-.884a1.4 1.4 0 00-.371-1 1.3 1.3 0 00-.988-.392 1.535 1.535 0 00-1.154.417 1.612 1.612 0 00-.411 1.174h-.989a2.306 2.306 0 01.7-1.746A2.579 2.579 0 0159.911 3a2.478 2.478 0 011.724.572 1.95 1.95 0 01.634 1.523 4.474 4.474 0 01-1.472 2.75l-2.101 2.272h3.926z" fill="#fff"/></svg>