<svg fill="none" height="14" viewBox="0 0 63 14" width="63" xmlns="http://www.w3.org/2000/svg" xmlns:xlink="http://www.w3.org/1999/xlink"><linearGradient id="b" gradientUnits="userSpaceOnUse" x1="62.622" x2="52.098" y1="5.99" y2="12.466"><stop offset="0" stop-color="#b6509e"/><stop offset="1" stop-color="#2ebac6"/></linearGradient><linearGradient id="a"><stop offset="0" stop-color="#30bac6"/><stop offset="1" stop-color="#b6509e"/></linearGradient><linearGradient id="c" gradientUnits="userSpaceOnUse" x1=".578" x2="48.148" xlink:href="#a" y1="13.501" y2="3.406"/><linearGradient id="d" gradientUnits="userSpaceOnUse" x1="1.467" x2="49.389" xlink:href="#a" y1="17.014" y2="11.002"/><linearGradient id="e" gradientUnits="userSpaceOnUse" x1=".22" x2="47.79" xlink:href="#a" y1="12.093" y2="1.976"/><linearGradient id="f" gradientUnits="userSpaceOnUse" x1="-.608" x2="46.966" xlink:href="#a" y1="8.842" y2="-1.287"/><path d="M53.35 9.562l2.231-6.45h1.128l-2.901 7.82h-.913L50 3.112h1.123zm9.272 1.37h-5.124v-.714l2.707-3.008c.316-.339.594-.71.83-1.11a1.84 1.84 0 00.228-.883 1.4 1.4 0 00-.371-1 1.3 1.3 0 00-.988-.392 1.535 1.535 0 00-1.154.417 1.612 1.612 0 00-.411 1.174h-.989a2.306 2.306 0 01.7-1.746 2.579 2.579 0 011.861-.666 2.478 2.478 0 011.724.572 1.95 1.95 0 01.634 1.523 4.474 4.474 0 01-1.472 2.75l-2.101 2.272h3.926z" fill="url(#b)"/><path d="M28.987 12.209L24.434 1.165a.97.97 0 01-.056-.313.865.865 0 01.224-.616.783.783 0 01.604-.235.813.813 0 01.47.157.988.988 0 01.326.414l4.33 10.807L34.657.572a.996.996 0 01.326-.413.813.813 0 01.47-.157.784.784 0 01.604.235.865.865 0 01.224.615.97.97 0 01-.056.314l-4.554 11.043a1.225 1.225 0 01-1.141.848h-.403a1.225 1.225 0 01-1.141-.848z" fill="url(#c)"/><path d="M38.215 12.722a.81.81 0 01-.235-.593V.94a.853.853 0 01.235-.603.776.776 0 01.593-.245h7.397a.734.734 0 01.56.235.752.752 0 01.235.56.71.71 0 01-.235.548.783.783 0 01-.56.224h-6.547V5.73h5.885a.735.735 0 01.56.235.77.77 0 01.234.56.712.712 0 01-.235.548.783.783 0 01-.56.224h-5.884v4.095h6.547a.734.734 0 01.56.235.752.752 0 01.235.559.71.71 0 01-.235.548.784.784 0 01-.56.224h-7.397a.732.732 0 01-.593-.236z" fill="url(#d)"/><path d="M25.463 11.894L20.911.85A1.224 1.224 0 0019.77.002h-.403a1.225 1.225 0 00-1.141.848l-1.98 4.81h-1.502a.821.821 0 00-.812.82v.01a.822.822 0 00.817.817h.806l-1.894 4.587a.971.971 0 00-.056.314.865.865 0 00.224.615.783.783 0 00.604.235.816.816 0 00.47-.157.995.995 0 00.326-.413l2.08-5.18h1.432a.821.821 0 00.817-.817v-.023a.821.821 0 00-.817-.816h-.771l1.6-3.972 4.328 10.807c.07.165.183.308.327.414.136.1.3.154.47.156a.783.783 0 00.604-.235.865.865 0 00.224-.615.743.743 0 00-.06-.313z" fill="url(#e)"/><path d="M11.86 11.895L7.308.85A1.225 1.225 0 006.167.003h-.403A1.225 1.225 0 004.623.85l-1.98 4.812H1.142a.821.821 0 00-.812.817v.011a.821.821 0 00.816.817h.804L.057 11.895a.971.971 0 00-.056.313.865.865 0 00.224.616.783.783 0 00.603.235.816.816 0 00.47-.157.996.996 0 00.327-.414l2.08-5.18H5.15a.821.821 0 00.817-.817V6.47a.821.821 0 00-.817-.817h-.772l1.588-3.971 4.33 10.807a1 1 0 00.326.414c.136.1.3.154.47.156a.783.783 0 00.604-.235.865.865 0 00.223-.615.74.74 0 00-.058-.313z" fill="url(#f)"/></svg>