<svg xmlns="http://www.w3.org/2000/svg" style="background:0 0" preserveAspectRatio="xMidYMid" viewBox="171.91 52.28 156.96 48"><defs><linearGradient id="editing-shiny-gradient" x1=".043" x2=".957" y1=".297" y2=".703" gradientUnits="objectBoundingBox"><stop offset="0" stop-color="#ffb200"/><stop offset=".5" stop-color="#e10057"/><stop offset="1" stop-color="#5A1A80"/></linearGradient><linearGradient id="editing-shiny-gradient2" x1="0" x2="0" y1="0" y2="1"><stop offset=".2" stop-color="#fff" stop-opacity=".8"/><stop offset=".8" stop-color="#fff" stop-opacity="0"/></linearGradient><filter id="editing-shiny2" x="-100%" y="-100%" width="300%" height="300%"><feMorphology radius="2"/></filter><filter id="editing-shiny" x="-100%" y="-100%" width="300%" height="300%"><feFlood flood-color="#fff" result="flood"/><feConvolveMatrix in="SourceGraphic" result="conv" order="8,8" divisor="1" kernelMatrix="0 0 0 0 0 0 0 0 0 0 0 1 1 0 0 0 0 0 0 1 1 0 0 0 0 0 1 0 0 1 0 0 0 0 1 0 0 1 0 0 0 1 0 0 0 0 1 0 0 1 1 0 0 1 1 0 0 0 0 1 1 0 0 0"/><feOffset dy="4" in="conv" result="offset"/><feComposite operator="in" in="flood" in2="offset" result="comp"/><feGaussianBlur in="offset" stdDeviation="3" result="shadow"/><feColorMatrix in="shadow" values="0.7 0 0 0 0 0 0.7 0 0 0 0 0 0.7 0 0 0 0 0 0.3 0" result="dark-shadow"/><feOffset dy="4" in="dark-shadow" result="offset-shadow"/><feOffset dy="2" in="conv" result="offset-2"/><feComposite operator="out" in="offset" in2="offset-2" result="edge-diff"/><feGaussianBlur in="edge-diff" stdDeviation="1" result="edge-blur"/><feColorMatrix in="edge-blur" result="edge-shadow" values="0 0 0 0 0 0 0 0 0 0 0 0 0 0 0 0 0 0 0.5 0"/><feComposite operator="in" in="edge-shadow" in2="offset" result="edge-shadow-in"/><feOffset dy="1" in="edge-shadow-in" result="edge-shadow-final"/><feMerge result="out"><feMergeNode in="offset-shadow"/><feMergeNode in="comp"/><feMergeNode in="edge-shadow-final"/><feMergeNode in="SourceGraphic"/></feMerge></filter></defs><g filter="url(#editing-shiny)"><path d="M32.51-26.62q0 2.68-2.24 4.35-2.24 1.66-5.89 1.66-1.53 0-2.43-.45.71-1.66.93-3.74.22-2.08.22-2.66 0-2.68-1.85-2.68-1.28 0-2.72 1.6-1.44 1.6-2.66 4.09-2.69 5.76-2.69 11.59 0 3.2 1.22 4.64 1.22 1.44 3.9 1.44 3.72 0 6.66-3.08.83-.96 1.28-2.04 2.43 1.28 2.43 4.8 0 3.58-3.97 5.95-4.09 2.43-10.62 2.43-12.99 0-12.99-13.76 0-10.05 5.69-15.81 5.51-5.63 15.62-5.63t10.11 7.3zm15.68 27.9q-14.08 0-14.08-13.25 0-9.41 5.19-15.49 5.5-6.46 15.04-6.46 6.91 0 10.43 3.2 3.52 3.2 3.52 9.92 0 10.24-5.51 16.19-5.37 5.89-14.59 5.89zm1.67-27.84q-.77 1.73-1.38 4.32-.61 2.59-1.38 6.69-.76 4.09-.76 9.15 0 1.66.54 2.75t2.02 1.09q1.47 0 2.4-.7.92-.71 1.63-2.37 1.28-2.95 2.3-8.42 1.03-5.47 1.12-7.84.1-2.37.1-4.13 0-1.76-.51-2.91-.52-1.15-1.96-1.15t-2.4.9q-.96.89-1.72 2.62zM71.94-1.6l-.39-7.87 8-6.15 4.99-4.09q2.56-2.18 4.42-4.1 3.39-3.39 3.39-6.65 0-1.92-1.25-2.95-1.24-1.02-3.07-1.02-1.82 0-3.13.41-1.32.42-2.47 1.12-2.43 1.6-3.58 4.04-1.6-.07-2.66-1.41-1.05-1.35-1.05-3.3 0-1.95 1.21-3.77 1.22-1.83 3.39-3.24 4.74-2.94 11.24-2.94 6.49 0 10.14 2.82 3.65 2.81 3.65 7.61 0 3.59-1.76 6.85t-6.43 6.59l-6.92 4.87-4.16 2.75-5.31 3.26 2.24.26q1.54.19 4.23.19 2.68 0 4.92-.29 2.24-.29 4.16-.86 4.23-1.15 5.57-2.75.71.51 1.25 1.82t.54 2.91q0 4.8-3.64 6.79-3.65 1.98-11.14 1.98-3.9 0-9.09-1.12-5.18-1.12-7.29-1.76zm60.99-35.52q.89-1.54.89-3.2 0-2.94-1.79-2.94-2.75 0-3.9 5.63l-.96 4.99h5.82l-.38 2.88h-6.02L120.83 0 107.9 1.28l6.15-31.04h-4.55l.58-2.88h4.48l1.34-5.06q1.16-4.67 6.08-6.84 3.59-1.54 9.6-1.54 6.02 0 8.71 1.54 2.69 1.53 2.69 3.58t-1.6 3.33q-1.6 1.28-3.4 1.28-3.52 0-5.05-.77zm20.35 33.6q-1.98 4.8-8.32 4.8-3.26 0-5.31-2.24-1.73-1.98-1.73-3.97 0-5.18 2.37-15.29l2.37-12.42 12.99-1.28-3.91 20.22q-1.08 4.74-1.08 6.4 0 3.65 2.62 3.78zm-9.47-38.02q0-2.49 2.08-3.84 2.08-1.34 5.09-1.34 3 0 4.83 1.34 1.82 1.35 1.82 3.84 0 2.5-2.01 3.78-2.02 1.28-5.03 1.28-3.01 0-4.89-1.28-1.89-1.28-1.89-3.78z" fill="url(#editing-shiny-gradient)" transform="translate(170.822 99)"/></g><g filter="url(#editing-shiny2)"><path d="M32.51-26.62q0 2.68-2.24 4.35-2.24 1.66-5.89 1.66-1.53 0-2.43-.45.71-1.66.93-3.74.22-2.08.22-2.66 0-2.68-1.85-2.68-1.28 0-2.72 1.6-1.44 1.6-2.66 4.09-2.69 5.76-2.69 11.59 0 3.2 1.22 4.64 1.22 1.44 3.9 1.44 3.72 0 6.66-3.08.83-.96 1.28-2.04 2.43 1.28 2.43 4.8 0 3.58-3.97 5.95-4.09 2.43-10.62 2.43-12.99 0-12.99-13.76 0-10.05 5.69-15.81 5.51-5.63 15.62-5.63t10.11 7.3zm15.68 27.9q-14.08 0-14.08-13.25 0-9.41 5.19-15.49 5.5-6.46 15.04-6.46 6.91 0 10.43 3.2 3.52 3.2 3.52 9.92 0 10.24-5.51 16.19-5.37 5.89-14.59 5.89zm1.67-27.84q-.77 1.73-1.38 4.32-.61 2.59-1.38 6.69-.76 4.09-.76 9.15 0 1.66.54 2.75t2.02 1.09q1.47 0 2.4-.7.92-.71 1.63-2.37 1.28-2.95 2.3-8.42 1.03-5.47 1.12-7.84.1-2.37.1-4.13 0-1.76-.51-2.91-.52-1.15-1.96-1.15t-2.4.9q-.96.89-1.72 2.62zM71.94-1.6l-.39-7.87 8-6.15 4.99-4.09q2.56-2.18 4.42-4.1 3.39-3.39 3.39-6.65 0-1.92-1.25-2.95-1.24-1.02-3.07-1.02-1.82 0-3.13.41-1.32.42-2.47 1.12-2.43 1.6-3.58 4.04-1.6-.07-2.66-1.41-1.05-1.35-1.05-3.3 0-1.95 1.21-3.77 1.22-1.83 3.39-3.24 4.74-2.94 11.24-2.94 6.49 0 10.14 2.82 3.65 2.81 3.65 7.61 0 3.59-1.76 6.85t-6.43 6.59l-6.92 4.87-4.16 2.75-5.31 3.26 2.24.26q1.54.19 4.23.19 2.68 0 4.92-.29 2.24-.29 4.16-.86 4.23-1.15 5.57-2.75.71.51 1.25 1.82t.54 2.91q0 4.8-3.64 6.79-3.65 1.98-11.14 1.98-3.9 0-9.09-1.12-5.18-1.12-7.29-1.76zm60.99-35.52q.89-1.54.89-3.2 0-2.94-1.79-2.94-2.75 0-3.9 5.63l-.96 4.99h5.82l-.38 2.88h-6.02L120.83 0 107.9 1.28l6.15-31.04h-4.55l.58-2.88h4.48l1.34-5.06q1.16-4.67 6.08-6.84 3.59-1.54 9.6-1.54 6.02 0 8.71 1.54 2.69 1.53 2.69 3.58t-1.6 3.33q-1.6 1.28-3.4 1.28-3.52 0-5.05-.77zm20.35 33.6q-1.98 4.8-8.32 4.8-3.26 0-5.31-2.24-1.73-1.98-1.73-3.97 0-5.18 2.37-15.29l2.37-12.42 12.99-1.28-3.91 20.22q-1.08 4.74-1.08 6.4 0 3.65 2.62 3.78zm-9.47-38.02q0-2.49 2.08-3.84 2.08-1.34 5.09-1.34 3 0 4.83 1.34 1.82 1.35 1.82 3.84 0 2.5-2.01 3.78-2.02 1.28-5.03 1.28-3.01 0-4.89-1.28-1.89-1.28-1.89-3.78z" fill="url(#editing-shiny-gradient2)" transform="translate(171.24 99)"/></g><style/></svg>