<svg width="71.45" height="122" xmlns="http://www.w3.org/2000/svg" viewBox="214.275 14 71.45 122" style="background:0 0" preserveAspectRatio="xMidYMid"><defs><linearGradient id="editing-shiny-gradient" x1=".043" x2=".957" y1=".297" y2=".703" gradientUnits="objectBoundingBox"><stop offset="0" stop-color="#ffb200"/><stop offset=".5" stop-color="#e10057"/><stop offset="1" stop-color="#5A1A80"/></linearGradient><linearGradient id="editing-shiny-gradient2" x1="0" x2="0" y1="0" y2="1"><stop offset=".2" stop-color="#fff" stop-opacity=".8"/><stop offset=".8" stop-color="#fff" stop-opacity="0"/></linearGradient><filter id="editing-shiny2" x="-100%" y="-100%" width="300%" height="300%"><feMorphology radius="2"/></filter><filter id="editing-shiny" x="-100%" y="-100%" width="300%" height="300%"><feFlood flood-color="#fff" result="flood"/><feConvolveMatrix in="SourceGraphic" result="conv" order="8,8" divisor="1" kernelMatrix="0 0 0 0 0 0 0 0 0 0 0 1 1 0 0 0 0 0 0 1 1 0 0 0 0 0 1 0 0 1 0 0 0 0 1 0 0 1 0 0 0 1 0 0 0 0 1 0 0 1 1 0 0 1 1 0 0 0 0 1 1 0 0 0"/><feOffset dy="4" in="conv" result="offset"/><feComposite operator="in" in="flood" in2="offset" result="comp"/><feGaussianBlur in="offset" stdDeviation="3" result="shadow"/><feColorMatrix in="shadow" values="0.7 0 0 0 0 0 0.7 0 0 0 0 0 0.7 0 0 0 0 0 0.3 0" result="dark-shadow"/><feOffset dy="4" in="dark-shadow" result="offset-shadow"/><feOffset dy="2" in="conv" result="offset-2"/><feComposite operator="out" in="offset" in2="offset-2" result="edge-diff"/><feGaussianBlur in="edge-diff" stdDeviation="1" result="edge-blur"/><feColorMatrix in="edge-blur" result="edge-shadow" values="0 0 0 0 0 0 0 0 0 0 0 0 0 0 0 0 0 0 0.5 0"/><feComposite operator="in" in="edge-shadow" in2="offset" result="edge-shadow-in"/><feOffset dy="1" in="edge-shadow-in" result="edge-shadow-final"/><feMerge result="out"><feMergeNode in="offset-shadow"/><feMergeNode in="comp"/><feMergeNode in="edge-shadow-final"/><feMergeNode in="SourceGraphic"/></feMerge></filter></defs><g filter="url(#editing-shiny)"><path d="M15.04 1.28Q.96 1.28.96-11.97q0-9.41 5.18-15.49 5.51-6.46 15.04-6.46 6.92 0 10.44 3.2 3.52 3.2 3.52 9.92 0 10.24-5.51 16.19-5.37 5.89-14.59 5.89zm1.66-27.84q-.76 1.73-1.37 4.32-.61 2.59-1.38 6.69-.77 4.09-.77 9.15 0 1.66.55 2.75.54 1.09 2.01 1.09 1.48 0 2.4-.7.93-.71 1.64-2.37 1.28-2.95 2.3-8.42 1.02-5.47 1.12-7.84.1-2.37.1-4.13 0-1.76-.52-2.91-.51-1.15-1.95-1.15t-2.4.9q-.96.89-1.73 2.62z" fill="url(#editing-shiny-gradient)" transform="translate(231.95 92.6)"/></g><g filter="url(#editing-shiny2)"><path d="M15.04 1.28Q.96 1.28.96-11.97q0-9.41 5.18-15.49 5.51-6.46 15.04-6.46 6.92 0 10.44 3.2 3.52 3.2 3.52 9.92 0 10.24-5.51 16.19-5.37 5.89-14.59 5.89zm1.66-27.84q-.76 1.73-1.37 4.32-.61 2.59-1.38 6.69-.77 4.09-.77 9.15 0 1.66.55 2.75.54 1.09 2.01 1.09 1.48 0 2.4-.7.93-.71 1.64-2.37 1.28-2.95 2.3-8.42 1.02-5.47 1.12-7.84.1-2.37.1-4.13 0-1.76-.52-2.91-.51-1.15-1.95-1.15t-2.4.9q-.96.89-1.73 2.62z" fill="url(#editing-shiny-gradient2)" transform="translate(231.95 92.6)"/></g><style/></svg>