<svg xmlns="http://www.w3.org/2000/svg" viewBox="0 0 1733.654 1693.909"><path fill="#231F20" d="M1694.174 714.759c-17.457-166.566-111.253-320.948-264.109-434.706-148.092-110.212-339.133-172.642-540.097-176.9-.594-.244-1.19-.482-1.784-.723V42.754a4.2 4.2 0 00-4.2-4.201h-16.062a4.201 4.201 0 00-4.201 4.201v59.579c-.509.202-1.018.402-1.526.606-213.126 1.168-414.86 67.238-568.617 186.365-75.552 58.536-135.947 126.998-179.508 203.484-45 79.015-70.102 163.377-74.607 250.743a4.2 4.2 0 008.029 1.932c33.652-75.195 111.553-123.782 198.462-123.782 94.755 0 177.39 57.039 205.625 141.935a4.192 4.192 0 002.866 2.712c-.639 4.408-.943 6.846-.965 7.021a2.1 2.1 0 104.17.506c.024-.2.419-3.353 1.26-9.03a4.2 4.2 0 00.642-1.214c28.142-84.893 110.742-141.931 205.54-141.931 87.177 0 165.602 50.068 198.628 124.253v5.99h.001v425.078c0 95.151.283 190.27-1.353 285.408l-.341 19.83c-.454 26.381-.961 53.135-8.377 78.457s-22.715 49.474-46.084 61.724c-28.846 15.121-66.469 8.79-91.169-12.439s-36.606-55.277-34.197-87.757c.485-6.543 1.474-13.32-.685-19.516-2.159-6.195-8.818-11.452-15.052-9.406-6.279 2.061-8.44 9.736-9.237 16.297-4.854 39.951 6.818 82.489 34.598 111.608s72.058 42.784 110.392 30.531c24.403-7.8 45.147-25.252 59.165-46.696 31.127-47.619 27.712-108.435 26.891-162.834-.454-30.049-.089-60.133-.089-90.187v-580.54c0-4.974-1.629-14.169-1.022-20.735h-.084v-.002h.083c.161-1.745.471-3.314 1.022-4.557C921.14 671.862 999.643 621.68 1086.92 621.68c93.028 0 175.152 55.652 204.354 138.483a4.19 4.19 0 002.439 2.506c.394 2.756.59 4.286.606 4.422a2.1 2.1 0 104.168-.515c-.017-.138-.218-1.711-.624-4.547a4.187 4.187 0 001.335-1.869c29.11-82.829 111.197-138.479 204.263-138.479 75.169 0 143.588 35.822 183.022 95.823a4.2 4.2 0 004.922 1.649 4.2 4.2 0 002.769-4.394z"/><path fill="#3FD9BD" d="M404.601 277.953a21.376 21.376 0 01-18.513-32.066c3.819-6.614 18.513-29.799 18.513-29.799 0 17.312 14.694 23.185 18.513 29.799a21.375 21.375 0 01-18.513 32.066z"/><path fill="#7FE3A9" d="M426.2 406.134a19.31 19.31 0 01-16.723-28.965c3.449-5.975 16.723-26.917 16.723-26.917 0 15.638 13.273 20.943 16.723 26.917a19.312 19.312 0 01-16.723 28.965z"/><path fill="#4EC1FE" d="M776.516 534.471a41.404 41.404 0 01-35.858-62.109c7.396-12.811 35.858-57.718 35.858-57.718 0 33.533 28.462 44.907 35.858 57.718a41.408 41.408 0 01-35.858 62.109z"/><path fill="#0C7330" d="M1298.052 714.579a12.025 12.025 0 01-10.415-18.039c2.148-3.721 10.415-16.764 10.415-16.764 0 9.74 8.267 13.043 10.415 16.764a12.027 12.027 0 01-10.415 18.039z"/><path fill="#FD6AD9" d="M1343.333 606.313a28.124 28.124 0 01-24.355-42.184c5.024-8.701 24.355-39.202 24.355-39.202 0 22.776 19.331 30.501 24.355 39.202a28.121 28.121 0 01-24.355 42.184z"/><path fill="#C4E7F1" d="M1131.56 245.888a11.185 11.185 0 01-9.687-16.777c1.998-3.461 9.687-15.591 9.687-15.591 0 9.058 7.688 12.131 9.686 15.591a11.185 11.185 0 01-9.686 16.777z"/><path fill="#F2F0BB" d="M504.607 407.838a12.653 12.653 0 01-10.957-18.978c2.26-3.915 10.957-17.637 10.957-17.637 0 10.247 8.697 13.722 10.957 17.637a12.652 12.652 0 01-10.957 18.978z"/><path fill="#ED6AE6" d="M1242.847 521.537a37.015 37.015 0 01-32.057-55.524c6.612-11.453 32.057-51.6 32.057-51.6 0 29.978 25.445 40.147 32.057 51.6a37.017 37.017 0 01-32.057 55.524z"/><path fill="#5CF110" d="M848.591 491.001A12.114 12.114 0 01838.1 472.83c2.164-3.748 10.491-16.886 10.491-16.886 0 9.81 8.327 13.138 10.491 16.886a12.114 12.114 0 01-10.491 18.171z"/><path fill="#AFE2F4" d="M638.657 244.031a40.194 40.194 0 01-34.808-60.289c7.18-12.436 34.808-56.028 34.808-56.028 0 32.551 27.628 43.592 34.808 56.028a40.192 40.192 0 01-34.808 60.289z"/><path fill="#85E5CD" d="M608.441 310.117a20.378 20.378 0 01-17.648-30.567c3.64-6.305 17.648-28.406 17.648-28.406 0 16.503 14.008 22.101 17.648 28.406a20.379 20.379 0 01-17.648 30.567z"/><path fill="#3F327D" d="M755.712 148.753a11.69 11.69 0 01-10.124-17.535c2.088-3.617 10.124-16.295 10.124-16.295 0 9.467 8.036 12.679 10.124 16.295a11.691 11.691 0 01-10.124 17.535z"/><path fill="#8AF767" d="M1010.742 231.421a39.177 39.177 0 01-33.929-58.767c6.998-12.122 33.929-54.613 33.929-54.613 0 31.729 26.931 42.491 33.929 54.613a39.18 39.18 0 01-33.929 58.767z"/><path fill="#87FD61" d="M803.573 342.613a24.884 24.884 0 01-21.549-37.324c4.445-7.699 21.549-34.686 21.549-34.686 0 20.152 17.104 26.987 21.549 34.686a24.883 24.883 0 01-21.549 37.324z"/><path fill="#3D8CFD" d="M1083.871 346.747a15.968 15.968 0 01-13.829-23.952c2.852-4.941 13.829-22.259 13.829-22.259 0 12.932 10.976 17.318 13.829 22.259a15.968 15.968 0 01-13.829 23.952z"/><path fill="#91FD4F" d="M1594.407 630.841a13.463 13.463 0 01-11.659-20.193c2.405-4.165 11.659-18.766 11.659-18.766 0 10.902 9.254 14.601 11.659 18.766a13.46 13.46 0 01-11.659 20.193z"/><path fill="#EB4E7B" d="M159.411 533.476a29.494 29.494 0 01-25.542-44.239c5.268-9.125 25.542-41.112 25.542-41.112 0 23.885 20.273 31.987 25.542 41.112a29.493 29.493 0 01-25.542 44.239z"/><path fill="#9A82F4" d="M950.783 562.383a41.406 41.406 0 01-35.858-62.108c7.396-12.811 35.858-57.717 35.858-57.717 0 33.532 28.461 44.906 35.858 57.717a41.406 41.406 0 01-35.858 62.108z"/><path fill="#59FEB9" d="M554.491 629.133a10.405 10.405 0 01-9.012-15.609c1.859-3.219 9.012-14.506 9.012-14.506 0 8.428 7.153 11.287 9.012 14.506a10.405 10.405 0 01-9.012 15.609z"/><path fill="#2F63F8" d="M441.494 583.095a34.523 34.523 0 01-29.899-51.787c6.167-10.682 29.899-48.126 29.899-48.126 0 27.96 23.732 37.444 29.899 48.126a34.526 34.526 0 01-29.899 51.787z"/><path fill="#2A6FFE" d="M1185.911 296.403a30.144 30.144 0 01-26.106-45.216c5.385-9.327 26.106-42.02 26.106-42.02 0 24.413 20.721 32.694 26.106 42.02a30.143 30.143 0 01-26.106 45.216z"/><path fill="#7BEE68" d="M223.998 467.214a36.427 36.427 0 01-31.546-54.639c6.507-11.27 31.546-50.777 31.546-50.777 0 29.5 25.039 39.507 31.546 50.777a36.425 36.425 0 01-31.546 54.639z"/><path fill="#E4FEC3" d="M301.44 395.136a32.069 32.069 0 01-27.772-48.102c5.728-9.922 27.772-44.702 27.772-44.702 0 25.971 22.043 34.78 27.772 44.702a32.07 32.07 0 01-27.772 48.102z"/><path fill="#FE4EF1" d="M864.241 141.035a12.76 12.76 0 01-11.049-19.138c2.279-3.948 11.049-17.785 11.049-17.785 0 10.333 8.77 13.838 11.049 17.785a12.76 12.76 0 01-11.049 19.138z"/><path fill="#3165F5" d="M1274.36 411.378a20.155 20.155 0 01-17.455-30.234c3.6-6.236 17.455-28.096 17.455-28.096 0 16.323 13.855 21.86 17.455 28.096a20.155 20.155 0 01-17.455 30.234z"/><path fill="#52FFF5" d="M352.202 319.912a23.37 23.37 0 01-20.24-35.056c4.175-7.231 20.24-32.578 20.24-32.578 0 18.927 16.065 25.347 20.24 32.578a23.37 23.37 0 01-20.24 35.056z"/><path fill="#778EEB" d="M1462.117 378.637a18.519 18.519 0 01-16.037-27.777c3.308-5.73 16.037-25.814 16.037-25.814 0 14.997 12.729 20.084 16.037 25.814a18.518 18.518 0 01-16.037 27.777z"/><path fill="#231FFA" d="M658.738 358.853a31.398 31.398 0 01-27.192-47.097c5.609-9.715 27.192-43.768 27.192-43.768 0 25.428 21.583 34.054 27.192 43.768a31.397 31.397 0 01-27.192 47.097z"/><path fill="#F16FC4" d="M877.234 381.954a19.582 19.582 0 01-16.959-29.373c3.498-6.059 16.959-27.297 16.959-27.297 0 15.859 13.461 21.238 16.959 27.297a19.582 19.582 0 01-16.959 29.373z"/><path fill="#577EFC" d="M894.488 472.59a25.404 25.404 0 01-21.999-38.104c4.538-7.86 21.999-35.41 21.999-35.41 0 20.573 17.461 27.551 21.999 35.41a25.402 25.402 0 01-21.999 38.104z"/><path fill="#B3C39A" d="M456.409 715.069a14.79 14.79 0 01-12.809-22.186c2.642-4.576 12.809-20.618 12.809-20.618 0 11.978 10.167 16.041 12.809 20.618a14.792 14.792 0 01-12.809 22.186z"/><path fill="#F67E40" d="M573.003 370.022a20.42 20.42 0 01-17.685-30.631c3.648-6.318 17.685-28.466 17.685-28.466 0 16.538 14.037 22.148 17.685 28.466a20.42 20.42 0 01-17.685 30.631z"/><path fill="#2D2BF2" d="M1431.604 611.041a33.602 33.602 0 01-29.101-50.405c6.003-10.397 29.101-46.842 29.101-46.842 0 27.214 23.099 36.445 29.101 46.842a33.602 33.602 0 01-29.101 50.405z"/><path fill="#C7A934" d="M542.138 445.654a22.595 22.595 0 01-19.568-33.894c4.036-6.991 19.568-31.497 19.568-31.497 0 18.299 15.532 24.506 19.568 31.497a22.598 22.598 0 01-19.568 33.894z"/><path fill="#73FB7D" d="M1148.255 348.399a11.38 11.38 0 01-9.856-17.072c2.033-3.521 9.856-15.865 9.856-15.865 0 9.217 7.823 12.344 9.856 15.865s2.033 7.86 0 11.381-5.79 5.691-9.856 5.691z"/><path fill="#9FF0FB" d="M880.662 702.678a41.136 41.136 0 01-35.625-61.704c7.348-12.728 35.625-57.343 35.625-57.343 0 33.315 28.277 44.615 35.625 57.343a41.137 41.137 0 01-35.625 61.704z"/><path fill="#A710EB" d="M1318.386 456.075a15.158 15.158 0 01-13.127-22.736c2.708-4.69 13.127-21.129 13.127-21.129 0 12.275 10.419 16.439 13.127 21.129s2.708 10.468 0 15.157a15.158 15.158 0 01-13.127 7.579z"/><path fill="#4D33AB" d="M348.003 568.44a30.712 30.712 0 01-26.598-46.07c5.486-9.503 26.598-42.813 26.598-42.813 0 24.873 21.112 33.31 26.598 42.813a30.715 30.715 0 01-26.598 46.07z"/><path fill="#F9306C" d="M303.141 476.09a19.914 19.914 0 01-17.246-29.871c3.557-6.161 17.246-27.76 17.246-27.76 0 16.128 13.689 21.598 17.246 27.76a19.915 19.915 0 01-17.246 29.871z"/><path fill="#3AFE66" d="M1375.047 505.953a26.435 26.435 0 01-22.894-39.654c4.722-8.179 22.894-36.851 22.894-36.851 0 21.409 18.172 28.671 22.894 36.851a26.438 26.438 0 01-22.894 39.654z"/><path fill="#FF2AF3" d="M1404.745 414.914a10.608 10.608 0 01-9.186-15.91c1.895-3.282 9.186-14.786 9.186-14.786 0 8.59 7.291 11.504 9.186 14.786a10.606 10.606 0 01-9.186 15.91z"/><path fill="#C8E1A6" d="M718.359 220.483a14.187 14.187 0 01-12.287-21.282c2.534-4.39 12.287-19.777 12.287-19.777 0 11.49 9.753 15.388 12.287 19.777a14.19 14.19 0 01-12.287 21.282z"/><path fill="#F1D772" d="M491.894 656.082a21.49 21.49 0 01-18.612-32.237c3.839-6.649 18.612-29.958 18.612-29.958 0 17.405 14.773 23.309 18.612 29.958a21.491 21.491 0 01-18.612 32.237z"/><path fill="#EB9EB6" d="M477.141 280.291a32.571 32.571 0 01-28.209-16.287c-5.819-10.078-5.819-22.495 0-32.573s28.209-45.406 28.209-45.406c0 26.38 22.391 35.328 28.209 45.406a32.571 32.571 0 01-28.209 48.86z"/><path fill="#30FEBC" d="M802.87 640.541a38.133 38.133 0 01-33.025-57.201c6.812-11.799 33.025-53.158 33.025-53.158 0 30.884 26.213 41.359 33.025 53.158a38.134 38.134 0 01-33.025 57.201z"/><path fill="#D5F154" d="M699.192 287.221a18.001 18.001 0 01-15.59-27.003c3.216-5.57 15.59-25.094 15.59-25.094 0 14.579 12.374 19.524 15.59 25.094a18 18 0 01-15.59 27.003z"/><path fill="#4D8AC5" d="M824.583 432.591a26.086 26.086 0 01-22.592-39.131c4.66-8.072 22.592-36.365 22.592-36.365 0 21.127 17.932 28.294 22.592 36.365a26.087 26.087 0 01-22.592 39.131z"/><path fill="#C6F4F4" d="M114.076 620.223a23.45 23.45 0 01-20.307-35.172c4.189-7.255 20.307-32.686 20.307-32.686 0 18.99 16.118 25.431 20.307 32.686a23.446 23.446 0 01-20.307 35.172z"/><path fill="#7068F8" d="M1022.682 601.932a21.742 21.742 0 01-18.829-32.613c3.884-6.727 18.829-30.307 18.829-30.307 0 17.608 14.945 23.58 18.829 30.307a21.741 21.741 0 01-18.829 32.613z"/><path fill="#07387F" d="M420.88 658.57a14.441 14.441 0 01-12.506-21.661c2.58-4.468 12.506-20.13 12.506-20.13 0 11.695 9.926 15.662 12.506 20.13s2.58 9.973 0 14.441-7.347 7.22-12.506 7.22z"/><path fill="#A328F9" d="M382.965 489.508a37.613 37.613 0 01-32.575-56.422c6.719-11.638 32.575-52.434 32.575-52.434 0 30.463 25.856 40.796 32.575 52.434a37.616 37.616 0 01-32.575 56.422z"/><path fill="#1A1AFA" d="M1016.157 482.178a19.438 19.438 0 01-16.834-29.158c3.472-6.014 16.834-27.097 16.834-27.097 0 15.743 13.362 21.083 16.835 27.097a19.44 19.44 0 01-16.835 29.158z"/><path fill="#96FD55" d="M1071.184 531.797a23.478 23.478 0 01-20.333-35.219c4.194-7.264 20.333-32.729 20.333-32.729 0 19.015 16.139 25.465 20.333 32.729a23.48 23.48 0 01-20.333 35.219z"/><path fill="#E4F76A" d="M378.643 629.003a12.846 12.846 0 01-11.124-19.267c2.294-3.974 11.124-17.905 11.124-17.905 0 10.402 8.829 13.931 11.124 17.905a12.846 12.846 0 01-11.124 19.267z"/><path fill="#19F635" d="M368.895 386.094a25.468 25.468 0 01-22.056-38.202c4.549-7.88 22.056-35.501 22.056-35.501 0 20.625 17.506 27.622 22.056 35.501a25.47 25.47 0 01-22.056 38.202z"/><path fill="#F69047" d="M665.513 407.93a11.337 11.337 0 01-9.818-17.006c2.025-3.508 9.818-15.804 9.818-15.804 0 9.182 7.793 12.296 9.818 15.804s2.025 7.829 0 11.337-5.768 5.669-9.818 5.669z"/><path fill="#D4F328" d="M755.164 290.379a22.94 22.94 0 01-19.867-34.41c4.098-7.098 19.867-31.978 19.867-31.978 0 18.578 15.769 24.88 19.867 31.978a22.94 22.94 0 01-19.867 34.41z"/><path fill="#2EC182" d="M954.653 275.324a18.596 18.596 0 01-16.105-27.894c3.322-5.754 16.105-25.923 16.105-25.923 0 15.061 12.783 20.169 16.105 25.923a18.595 18.595 0 01-16.105 27.894z"/><path fill="#92FB58" d="M477.618 374.703a17.521 17.521 0 01-15.174-26.281c3.13-5.421 15.174-24.424 15.174-24.424 0 14.19 12.044 19.003 15.174 24.424a17.52 17.52 0 01-15.174 26.281z"/><path fill="#FEF5EB" d="M1655.747 654.818a12.395 12.395 0 01-10.735-18.594c2.214-3.835 10.735-17.28 10.735-17.28 0 10.039 8.521 13.444 10.735 17.28a12.398 12.398 0 01-10.735 18.594z"/><path fill="#CAFECE" d="M805.932 242.832a12.082 12.082 0 01-10.463-18.123c2.158-3.738 10.463-16.842 10.463-16.842 0 9.785 8.305 13.103 10.463 16.842a12.083 12.083 0 01-10.463 18.123z"/><path fill="#C4BFFE" d="M1119.139 303.242a14.893 14.893 0 01-12.898-22.341c2.66-4.608 12.898-20.761 12.898-20.761 0 12.062 10.238 16.153 12.898 20.761a14.893 14.893 0 01-12.898 22.341z"/><path fill="#9FEFC6" d="M74.377 682.587a14.816 14.816 0 01-12.83-22.221c2.646-4.583 12.83-20.651 12.83-20.651 0 11.998 10.183 16.067 12.83 20.651a14.815 14.815 0 01-12.83 22.221z"/><path fill="#8239D7" d="M970.088 632.377a10.915 10.915 0 01-9.452-16.371c1.95-3.377 9.452-15.214 9.452-15.214 0 8.839 7.502 11.837 9.452 15.214s1.95 7.537 0 10.914-5.552 5.457-9.452 5.457z"/><path fill="#91586D" d="M1040.539 407.976a14.33 14.33 0 01-12.409-21.492c2.559-4.433 12.409-19.973 12.409-19.973 0 11.604 9.849 15.54 12.409 19.973a14.328 14.328 0 01-12.409 21.492z"/><path fill="#7016F7" d="M734.336 417.847a37.457 37.457 0 01-32.437-56.182c6.691-11.589 32.437-52.211 32.437-52.211 0 30.333 25.746 40.622 32.437 52.211a37.454 37.454 0 01-32.437 56.182z"/><path fill="#B54959" d="M1334.026 275.727a18.502 18.502 0 01-16.024-27.753c3.305-5.725 16.024-25.792 16.024-25.792 0 14.984 12.718 20.067 16.023 25.792a18.502 18.502 0 01-16.023 27.753z"/><path fill="#8093F5" d="M857.523 258.534a17.023 17.023 0 01-14.744-25.538c3.041-5.268 14.744-23.733 14.744-23.733 0 13.788 11.703 18.465 14.744 23.733a17.026 17.026 0 01-14.744 25.538z"/><path fill="#EFF1AB" d="M959.63 420.643a37.655 37.655 0 01-32.611-56.484c6.727-11.651 32.611-52.491 32.611-52.491 0 30.496 25.884 40.841 32.611 52.491a37.654 37.654 0 01-32.611 56.484z"/><path fill="#F9957F" d="M527.14 578.991a19.69 19.69 0 01-17.054-29.539C513.604 543.359 527.14 522 527.14 522c0 15.948 13.537 21.358 17.054 27.451a19.692 19.692 0 01-17.054 29.54z"/><path fill="#DB64F3" d="M1500.614 417.579a18.752 18.752 0 01-16.24-28.129c3.35-5.802 16.24-26.141 16.24-26.141 0 15.187 12.89 20.339 16.24 26.141a18.753 18.753 0 01-16.24 28.129z"/><path fill="#1451F4" d="M910.334 316.773a20.741 20.741 0 01-17.963-31.113c3.705-6.418 17.963-28.914 17.963-28.914 0 16.798 14.258 22.496 17.963 28.914a20.743 20.743 0 01-17.963 31.113z"/><path fill="#FFD6ED" d="M252.518 369.738a11.962 11.962 0 01-10.36-17.945c2.137-3.701 10.36-16.676 10.36-16.676 0 9.688 8.223 12.975 10.36 16.676a11.963 11.963 0 01-10.36 17.945z"/><path fill="#4C1BB9" d="M433.699 344.911a27.307 27.307 0 01-23.648-40.96c4.878-8.449 23.648-38.065 23.648-38.065 0 22.115 18.77 29.616 23.648 38.065a27.307 27.307 0 01-23.648 40.96z"/><path fill="#EBF0ED" d="M906.454 217.259a37.202 37.202 0 01-32.217-55.801c6.645-11.51 32.217-51.856 32.217-51.856 0 30.127 25.571 40.346 32.217 51.856a37.203 37.203 0 01-32.217 55.801z"/><path fill="#A6F3BB" d="M1338.609 391.116a29.754 29.754 0 01-25.768-44.631c5.315-9.206 25.768-41.477 25.768-41.477 0 24.097 20.453 32.271 25.768 41.477a29.754 29.754 0 01-25.768 44.631z"/><path fill="#42EC4F" d="M925.368 612.756a14.48 14.48 0 01-12.54-21.72c2.587-4.48 12.54-20.185 12.54-20.185 0 11.727 9.953 15.705 12.54 20.185a14.478 14.478 0 01-12.54 21.72z"/><path fill="#D5F847" d="M1215.224 621.309a24.052 24.052 0 01-20.829-36.076c4.296-7.441 20.829-33.526 20.829-33.526 0 19.478 16.532 26.085 20.829 33.526a24.052 24.052 0 01-20.829 36.076z"/><path fill="#4AF1B4" d="M332.878 620.354a12.919 12.919 0 01-11.189-19.379c2.308-3.997 11.189-18.009 11.189-18.009 0 10.463 8.881 14.012 11.189 18.009a12.918 12.918 0 01-11.189 19.379z"/><path fill="#94FFD4" d="M1174.913 199.038a15.285 15.285 0 01-13.237-22.926c2.73-4.729 13.237-21.306 13.237-21.306 0 12.378 10.506 16.577 13.237 21.306a15.285 15.285 0 01-13.237 22.926z"/><path fill="#57F726" d="M521.509 209.6a13.48 13.48 0 01-11.674-20.221c2.408-4.171 11.674-18.791 11.674-18.791 0 10.917 9.266 14.621 11.675 18.791a13.482 13.482 0 01-11.675 20.221z"/><path fill="#FD66CC" d="M1595.268 587.901a33.05 33.05 0 01-28.622-49.574c5.904-10.226 28.622-46.07 28.622-46.07 0 26.765 22.718 35.844 28.621 46.07a33.047 33.047 0 01-28.621 49.574z"/><path fill="#919F40" d="M1074.68 260.489a10.588 10.588 0 01-9.17-15.883c1.891-3.276 9.17-14.76 9.17-14.76 0 8.576 7.279 11.484 9.17 14.76s1.891 7.313 0 10.589a10.59 10.59 0 01-9.17 5.294z"/><path fill="#90AD28" d="M1201.806 403.908a30.634 30.634 0 01-26.531-45.954c5.473-9.479 26.531-42.705 26.531-42.705 0 24.811 21.059 33.227 26.531 42.705a30.634 30.634 0 01-26.531 45.954z"/><path fill="#EF3FFA" d="M1537.834 488.136a28.746 28.746 0 01-24.896-43.122c5.135-8.895 24.896-40.074 24.896-40.074 0 23.282 19.761 31.179 24.896 40.074a28.75 28.75 0 01-24.896 43.122z"/><path fill="#FF3EE5" d="M1452.869 493.167a30.135 30.135 0 01-26.097-45.201c5.383-9.324 26.097-42.007 26.097-42.007 0 24.405 20.714 32.683 26.097 42.007a30.134 30.134 0 01-26.097 45.201z"/><path fill="#E9B5FA" d="M1272.62 665.984a21.522 21.522 0 01-18.64-32.285c3.845-6.659 18.64-30.003 18.64-30.003 0 17.431 14.795 23.343 18.64 30.003a21.522 21.522 0 01-18.64 32.285z"/><path fill="#9DECD4" d="M724.313 604.989a17.073 17.073 0 01-14.786-25.611c3.05-5.283 14.786-23.8 14.786-23.8 0 13.828 11.736 18.518 14.786 23.8a17.074 17.074 0 01-14.786 25.611z"/><path fill="#FDBAFD" d="M228.793 611.489a15.345 15.345 0 01-13.29-23.019c2.741-4.748 13.29-21.392 13.29-21.392 0 12.428 10.549 16.644 13.29 21.392a15.347 15.347 0 01-13.29 23.019z"/><path fill="#9F80BB" d="M855.175 310.58a12.776 12.776 0 01-11.064-19.164c2.282-3.953 11.064-17.809 11.064-17.809 0 10.347 8.782 13.856 11.064 17.809a12.777 12.777 0 01-11.064 19.164z"/><path fill="#20CEF4" d="M175.398 606.007a19.254 19.254 0 01-16.674-28.88c3.439-5.957 16.674-26.838 16.674-26.838 0 15.592 13.234 20.881 16.674 26.838a19.254 19.254 0 01-16.674 28.88z"/><path fill="#E4EFDA" d="M605.753 594.61a23.192 23.192 0 01-20.084-34.786c4.143-7.175 20.084-32.327 20.084-32.327 0 18.781 15.941 25.152 20.084 32.327a23.19 23.19 0 01-20.084 34.786z"/><path fill="#D10B20" d="M555.372 285.05a30.216 30.216 0 01-26.167-45.322c5.397-9.348 26.167-42.118 26.167-42.118 0 24.47 20.769 32.77 26.167 42.118a30.217 30.217 0 01-26.167 45.322z"/><path fill="#BEFE1C" d="M698.059 168.292a16.75 16.75 0 01-14.507-25.128c2.992-5.183 14.507-23.351 14.507-23.351 0 13.567 11.515 18.168 14.507 23.351a16.754 16.754 0 01-14.507 25.128z"/><path fill="#F1D2B0" d="M1021.418 345.856a38.145 38.145 0 01-33.033-57.214c6.814-11.801 33.033-53.17 33.033-53.17 0 30.891 26.219 41.369 33.033 53.17a38.141 38.141 0 01-33.033 57.214z"/><path fill="#D52C1B" d="M822.769 184.585a26.693 26.693 0 01-23.117-40.04c4.768-8.259 23.117-37.209 23.117-37.209 0 21.618 18.349 28.951 23.117 37.209a26.694 26.694 0 01-23.117 40.04z"/><path fill="#591773" d="M1584.162 488.955a10.486 10.486 0 01-9.082-15.732c1.873-3.245 9.082-14.619 9.082-14.619 0 8.493 7.209 11.374 9.083 14.619a10.49 10.49 0 01-9.083 15.732z"/><path fill="#F6D86F" d="M683.719 540.485a37.422 37.422 0 01-32.408-56.133c6.685-11.578 32.408-52.165 32.408-52.165 0 30.307 25.723 40.586 32.408 52.165a37.421 37.421 0 01-32.408 56.133z"/><path fill="#53E2F5" d="M1154.888 615.193a15.765 15.765 0 01-13.652-23.646c2.816-4.878 13.652-21.975 13.652-21.975 0 12.767 10.836 17.098 13.652 21.975a15.764 15.764 0 01-13.652 23.646z"/><path fill="#7BF67B" d="M1312.419 519.934a11.185 11.185 0 01-9.686-16.776c1.998-3.46 9.686-15.59 9.686-15.59 0 9.058 7.688 12.13 9.686 15.59a11.183 11.183 0 01-9.686 16.776z"/><path fill="#BD9221" d="M864.241 550.416a12.155 12.155 0 01-10.526-18.231c2.171-3.76 10.526-16.942 10.526-16.942 0 9.843 8.354 13.182 10.526 16.942a12.152 12.152 0 01-10.526 18.231z"/><path fill="#EB665E" d="M1402.203 357.233a33.878 33.878 0 01-29.34-50.819c6.052-10.482 29.34-47.227 29.34-47.227 0 27.438 23.288 36.745 29.34 47.227a33.879 33.879 0 01-29.34 50.819z"/><path fill="#86FC6E" d="M1235.068 227.739a17.466 17.466 0 01-15.126-26.199c3.12-5.404 15.126-24.348 15.126-24.348 0 14.145 12.006 18.943 15.126 24.348a17.466 17.466 0 01-15.126 26.199z"/><path fill="#0966A1" d="M573.301 188.89a12.764 12.764 0 01-11.053-19.144c2.28-3.949 11.053-17.791 11.053-17.791 0 10.336 8.773 13.842 11.053 17.791a12.762 12.762 0 01-11.053 19.144z"/><path fill="#F73FE7" d="M957.82 146.601a11.93 11.93 0 01-10.332-17.895c2.131-3.691 10.332-16.63 10.332-16.63 0 9.662 8.201 12.939 10.332 16.63a11.93 11.93 0 01-10.332 17.895z"/><path fill="#6BF9A5" d="M563.443 522.726a16.404 16.404 0 01-14.207-24.608c2.931-5.076 14.207-22.868 14.207-22.868 0 13.286 11.277 17.793 14.207 22.868a16.407 16.407 0 01-14.207 24.608z"/><path fill="#A479F1" d="M1348.546 661.074a12.21 12.21 0 01-10.575-18.317c2.181-3.778 10.575-17.022 10.575-17.022 0 9.89 8.394 13.244 10.576 17.022a12.212 12.212 0 01-10.576 18.317z"/><path fill="#F3CCEA" d="M1519.334 604.324a10.704 10.704 0 01-9.27-16.056c1.912-3.312 9.27-14.922 9.27-14.922 0 8.669 7.358 11.61 9.27 14.922s1.912 7.392 0 10.704-5.445 5.352-9.27 5.352z"/><path fill="#FE1A4D" d="M1274.633 574.149a12.802 12.802 0 01-11.086-19.202c2.287-3.961 11.086-17.844 11.086-17.844 0 10.367 8.799 13.884 11.086 17.844a12.8 12.8 0 01-11.086 19.202z"/><path fill="#93F55B" d="M1111.779 463.212a41.197 41.197 0 01-35.678-61.796c7.359-12.747 35.678-57.428 35.678-57.428 0 33.364 28.319 44.681 35.678 57.428a41.198 41.198 0 01-35.678 61.796z"/><path fill="#EFAEA3" d="M664.622 603.963a12.791 12.791 0 01-11.078-19.188c2.285-3.958 11.078-17.832 11.078-17.832 0 10.36 8.793 13.874 11.078 17.832s2.285 8.834 0 12.792-6.508 6.396-11.078 6.396z"/><path fill="#FD64A4" d="M502.024 503.373a16.651 16.651 0 01-14.42-24.976c2.974-5.152 14.42-23.211 14.42-23.211 0 13.485 11.446 18.059 14.42 23.211s2.974 11.499 0 16.651a16.654 16.654 0 01-14.42 8.325z"/><path fill="#8BB143" d="M286.481 606.898a16.728 16.728 0 01-14.487-25.092c2.988-5.176 14.487-23.318 14.487-23.318 0 13.547 11.499 18.143 14.487 23.318a16.729 16.729 0 01-14.487 25.092z"/><path fill="#EC3C75" d="M1092.49 607.516a24.293 24.293 0 01-21.038-36.438c4.339-7.516 21.038-33.862 21.038-33.862 0 19.673 16.698 26.346 21.037 33.862a24.294 24.294 0 01-21.037 36.438z"/><path fill="#BDBDED" d="M1269.999 326.728a37.446 37.446 0 01-32.427-18.721 37.446 37.446 0 010-37.443c6.689-11.585 32.427-52.194 32.427-52.194 0 30.324 25.738 40.609 32.427 52.194a37.446 37.446 0 010 37.443 37.446 37.446 0 01-32.427 18.721z"/><path fill="#F9FEC1" d="M1506.622 545.867a14.443 14.443 0 01-12.509-21.667c2.58-4.469 12.509-20.135 12.509-20.135 0 11.698 9.929 15.666 12.51 20.135a14.447 14.447 0 01-12.51 21.667z"/><path fill="#A9F0A3" d="M519.22 339.362a15.963 15.963 0 01-13.824-23.943c2.851-4.939 13.824-22.251 13.824-22.251 0 12.927 10.972 17.312 13.824 22.251a15.964 15.964 0 01-13.824 23.943z"/><path fill="#4A0D65" d="M463.437 460.22a20.115 20.115 0 01-17.42-30.173c3.593-6.224 17.42-28.04 17.42-28.04 0 16.291 13.827 21.816 17.42 28.04a20.116 20.116 0 01-17.42 30.173z"/><path fill="#EBCACE" d="M1107.153 209.926a26.473 26.473 0 01-22.928-39.713c4.729-8.192 22.928-36.906 22.928-36.906 0 21.442 18.199 28.714 22.928 36.906a26.476 26.476 0 01-22.928 39.713z"/><path fill="#40B6F9" d="M614.119 480.817a40.078 40.078 0 01-34.708-60.116c7.159-12.4 34.708-55.866 34.708-55.866 0 32.457 27.549 43.466 34.708 55.866a40.077 40.077 0 01-34.708 60.116z"/><path fill="#7D2AFD" d="M249.599 560.385a35.396 35.396 0 01-30.653-53.092c6.323-10.951 30.653-49.34 30.653-49.34 0 28.665 24.33 38.388 30.653 49.34a35.394 35.394 0 01-30.653 53.092z"/><path fill="#3EFFDC" d="M1155.632 549.924a25.978 25.978 0 01-22.498-38.967c4.641-8.038 22.498-36.212 22.498-36.212 0 21.039 17.857 28.175 22.497 36.212a25.976 25.976 0 01-22.497 38.967z"/><path fill="#B19973" d="M1057.308 160.452a13.09 13.09 0 01-11.335-19.633c2.338-4.05 11.335-18.245 11.335-18.245 0 10.6 8.997 14.195 11.335 18.245a13.09 13.09 0 01-11.335 19.633z"/><path fill="#F8F3ED" d="M1184.296 462.62a10.746 10.746 0 01-9.307-16.121c1.92-3.325 9.307-14.981 9.307-14.981 0 8.704 7.388 11.656 9.307 14.981a10.746 10.746 0 01-9.307 16.121z"/><path fill="#1E9DF5" d="M765.239 206.947a15.931 15.931 0 01-13.797-23.896c2.846-4.929 13.797-22.207 13.797-22.207 0 12.902 10.951 17.278 13.797 22.207a15.93 15.93 0 01-13.797 23.896z"/></svg>