<svg xmlns="http://www.w3.org/2000/svg" width="256" height="256.001" viewBox="0 0 256 256.001"><defs><linearGradient id="a" x1=".843" x2=".206" y1=".135" y2=".886" gradientUnits="objectBoundingBox"><stop offset="0" stop-color="#b6509e"/><stop offset="1" stop-color="#2ebac6"/></linearGradient></defs><circle cx="128" cy="128" r="128" fill="#fff"/><path fill="url(#a)" d="M128 256a128.976 128.976 0 01-25.8-2.6 127.309 127.309 0 01-45.77-19.261 128.366 128.366 0 01-46.375-56.315A127.357 127.357 0 012.6 153.8a129.251 129.251 0 010-51.593 127.31 127.31 0 0119.26-45.77 128.372 128.372 0 0156.317-46.378A127.33 127.33 0 01102.2 2.6a129.244 129.244 0 0151.593 0 127.308 127.308 0 0145.77 19.26 128.367 128.367 0 0146.375 56.316A127.343 127.343 0 01253.4 102.2a129.248 129.248 0 010 51.593 127.3 127.3 0 01-19.26 45.77 128.382 128.382 0 01-56.316 46.375A127.4 127.4 0 01153.8 253.4 128.977 128.977 0 01128 256zm0-242.287a115.145 115.145 0 00-23.033 2.322A113.657 113.657 0 0064.1 33.232a114.622 114.622 0 00-41.4 50.283 113.7 113.7 0 00-6.659 21.452 115.4 115.4 0 000 46.065 113.66 113.66 0 0017.2 40.866 114.627 114.627 0 0050.282 41.407 113.75 113.75 0 0021.453 6.658 115.381 115.381 0 0046.065 0 113.609 113.609 0 0040.866-17.2 114.622 114.622 0 0041.393-50.278 113.741 113.741 0 006.659-21.453 115.4 115.4 0 000-46.065 113.662 113.662 0 00-17.2-40.865A114.619 114.619 0 00172.485 22.7a113.74 113.74 0 00-21.453-6.659A115.145 115.145 0 00128 13.714z"/><path d="M64.08 186c-.09-1.806-.12-3.612-.03-5.418a12.44 12.44 0 011.836-.391 46.2 46.2 0 005.358-1.264c.482-.151.963-.331 1.445-.512a14.4 14.4 0 005.93-4.334 27.763 27.763 0 002.829-4.364 64.342 64.342 0 003.04-6.532c1.806-4.515 3.612-9 5.388-13.515l18.424-46.594q8.714-22.169 17.126-44.427l.361-.9c2.077-.575 4.093-1.177 6.201-1.749.12.3.241.572.331.843q3.567 9.933 7.1 19.9c8.1 22.6 16.194 45.179 24.5 67.694 2.288 6.14 4.575 12.311 6.893 18.451a58.609 58.609 0 003.221 7.314 36.285 36.285 0 001.746 2.95 14.122 14.122 0 008.368 6.05 44.779 44.779 0 005.659 1.114l1.354.211a5.729 5.729 0 01.09 1.746v1.827a17.48 17.48 0 01-.03 1.776c-.181.03-.331.06-.512.09h-47.613a1.079 1.079 0 01-.12-.331v-4.876a.558.558 0 01.06-.211 7.749 7.749 0 011.2-.241 48.313 48.313 0 005.809-1.144 20.012 20.012 0 002.257-.783 9.091 9.091 0 001.084-.542 4.628 4.628 0 002.468-4.816 15.086 15.086 0 00-.512-2.829c-.391-1.445-.9-2.859-1.385-4.244q-14.804-41.307-29.282-82.739a1.717 1.717 0 00-.451-.9 2.646 2.646 0 00-.3.181 1.419 1.419 0 00-.181.451c-4.727 13.572-9.753 27.058-14.75 40.511-3.7 9.963-7.4 19.956-10.836 30.009a558.925 558.925 0 00-4 12.16 29.435 29.435 0 00-1.114 4.756 11.958 11.958 0 00-.09 3.281 5.034 5.034 0 002.077 3.552 9.294 9.294 0 002.5 1.264 24.123 24.123 0 004.334 1.114c1.625.3 3.251.542 4.906.783.12.03.211.03.361.06l.09.361v4.726a.879.879 0 01-.06.271 2.321 2.321 0 01-.452.06h-.632L64.08 186z"/></svg>