<svg fill="none" height="256" viewBox="0 0 256 256" width="256" xmlns="http://www.w3.org/2000/svg"><linearGradient id="b" gradientUnits="userSpaceOnUse" x1="215.809" x2="52.736" y1="34.56" y2="226.817"><stop offset="0" stop-color="#b6509e"/><stop offset="1" stop-color="#2ebac6"/></linearGradient><clipPath id="a"><path d="M0 0h256v256H0z"/></clipPath><mask id="c" height="197" maskUnits="userSpaceOnUse" width="196" x="30" y="30"><path d="M30 30h196v196.683H30z" fill="#fff"/></mask><g clip-path="url(#a)"><path d="M128 256.001c70.693 0 128-57.308 128-128 0-70.693-57.307-128-128-128C57.308 0 0 57.308 0 128s57.308 128 128 128z" fill="#fff"/><path d="M128 256.001a129.012 129.012 0 01-25.8-2.6 127.32 127.32 0 01-45.77-19.261 128.371 128.371 0 01-46.374-56.315A127.377 127.377 0 012.6 153.801a129.251 129.251 0 010-51.593 127.308 127.308 0 0119.26-45.77A128.372 128.372 0 0178.178 10.06 127.334 127.334 0 01102.2 2.6a129.244 129.244 0 0151.593 0 127.304 127.304 0 0145.77 19.26 128.36 128.36 0 0146.375 56.317A127.252 127.252 0 01253.4 102.2a129.224 129.224 0 010 51.593 127.287 127.287 0 01-19.26 45.77 128.387 128.387 0 01-56.316 46.375A127.467 127.467 0 01153.8 253.4 128.997 128.997 0 01128 256zm0-242.287a115.153 115.153 0 00-23.033 2.322A113.658 113.658 0 0064.1 33.233a114.622 114.622 0 00-41.4 50.283 113.687 113.687 0 00-6.658 21.452 115.397 115.397 0 000 46.065 113.66 113.66 0 0017.2 40.866 114.631 114.631 0 0050.282 41.407 113.87 113.87 0 0021.452 6.658 115.394 115.394 0 0046.065 0 113.618 113.618 0 0040.866-17.2 114.62 114.62 0 0041.393-50.278 113.657 113.657 0 006.659-21.453 115.394 115.394 0 000-46.065 113.644 113.644 0 00-17.2-40.865A114.617 114.617 0 00172.485 22.7a113.706 113.706 0 00-21.453-6.66A115.14 115.14 0 00128 13.716z" fill="url(#b)"/><path d="M155.029 143.561c0-14.333-8.601-19.247-25.801-21.294-12.286-1.638-14.745-4.914-14.745-10.648s4.1-9.419 12.286-9.419c7.371 0 11.466 2.457 13.513 8.6a3.089 3.089 0 002.868 2.047h6.552a2.8 2.8 0 002.867-2.866v-.41a20.464 20.464 0 00-18.43-16.79v-9.828c0-1.638-1.229-2.867-3.276-3.277h-6.143c-1.638 0-2.866 1.229-3.276 3.277v9.419c-12.286 1.638-20.066 9.829-20.066 20.067 0 13.514 8.189 18.837 25.389 20.886 11.467 2.047 15.153 4.5 15.153 11.057s-5.733 11.057-13.513 11.057c-10.648 0-14.334-4.505-15.562-10.648a2.992 2.992 0 00-2.867-2.457h-6.962a2.804 2.804 0 00-2.667 1.759 2.783 2.783 0 00-.199 1.108v.41c1.637 10.237 8.19 17.609 21.7 19.657v9.829c0 1.637 1.229 2.866 3.276 3.276h6.143c1.638 0 2.866-1.229 3.276-3.276v-9.829c12.286-2.048 20.477-10.648 20.477-21.705z" fill="#fff"/><path d="M107.114 186.562a61.28 61.28 0 010-115.075 4.108 4.108 0 002.457-4.1v-5.733a3.111 3.111 0 00-2.457-3.276 2.467 2.467 0 00-1.638.409 73.695 73.695 0 000 140.466 2.497 2.497 0 003.186-.587 2.49 2.49 0 00.5-1.051c.41-.409.41-.819.41-1.637v-5.734c-.001-1.225-1.23-2.863-2.458-3.682zM150.52 58.791a2.485 2.485 0 00-2.261-.122 2.498 2.498 0 00-1.425 1.76c-.41.41-.41.819-.41 1.638V67.8a5.435 5.435 0 002.457 4.1 61.28 61.28 0 010 115.075 4.11 4.11 0 00-2.457 4.1v5.733a3.115 3.115 0 002.457 3.276 2.472 2.472 0 001.638-.409 74.012 74.012 0 0037.113-114.006 74.01 74.01 0 00-37.113-26.87z" fill="#fff"/><g mask="url(#c)"><path d="M226 128.342c0 54.312-43.876 98.341-98 98.341s-98-44.029-98-98.341C30 74.029 73.876 30 128 30s98 44.029 98 98.342z" fill="#e84142"/></g><path d="M96.873 178.521H76.09c-2.642.349-5.33.06-7.836-.844a5.285 5.285 0 01-2.395-4.12c-.077-1.544 1-3.444 3.157-7.208l51.304-90.431c2.183-3.841 3.29-5.762 4.68-6.473a5.292 5.292 0 014.789 0c1.395.711 2.497 2.632 4.68 6.473l10.545 18.412a35.02 35.02 0 014.119 8.496 15.607 15.607 0 010 7.312 34.677 34.677 0 01-4.119 8.496l-26.949 47.638a34.823 34.823 0 01-5.314 7.97 15.675 15.675 0 01-6.39 3.707 37.461 37.461 0 01-9.49.572zm82.248.005h-29.777a16.83 16.83 0 01-7.888-.839 5.334 5.334 0 01-2.394-4.156c-.077-1.544 1.03-3.444 3.233-7.259l14.861-25.514c2.183-3.758 3.29-5.627 4.633-6.338a5.24 5.24 0 014.763 0c1.395.711 2.472 2.575 4.681 6.313l14.932 25.513c2.208 3.815 3.341 5.71 3.259 7.26a5.258 5.258 0 01-2.394 4.155 16.53 16.53 0 01-7.909.865z" fill="#fff"/></g></svg>