<svg width="256" height="256" viewBox="0 0 256 256" fill="none" xmlns="http://www.w3.org/2000/svg"><g clip-path="url(#clip0)"><path d="M128 256c70.692 0 128-57.308 128-128C256 57.308 198.692 0 128 0 57.308 0 0 57.307 0 128c0 70.692 57.307 128 128 128z" fill="#fff"/><path d="M128 256a129.005 129.005 0 01-25.8-2.6 127.32 127.32 0 01-45.77-19.261 128.366 128.366 0 01-46.375-56.315A127.355 127.355 0 012.6 153.8a129.251 129.251 0 010-51.593 127.309 127.309 0 0119.26-45.77 128.372 128.372 0 0156.317-46.378A127.328 127.328 0 01102.2 2.6a129.244 129.244 0 0151.593 0 127.31 127.31 0 0145.77 19.26 128.373 128.373 0 0146.375 56.316A127.33 127.33 0 01253.4 102.2a129.26 129.26 0 010 51.593 127.297 127.297 0 01-19.26 45.77 128.38 128.38 0 01-56.316 46.375A127.394 127.394 0 01153.8 253.4 129.012 129.012 0 01128 256zm0-242.287a115.145 115.145 0 00-23.033 2.322A113.656 113.656 0 0064.1 33.232a114.622 114.622 0 00-41.4 50.283 113.694 113.694 0 00-6.659 21.452 115.397 115.397 0 000 46.065 113.66 113.66 0 0017.2 40.866 114.631 114.631 0 0050.282 41.407 113.718 113.718 0 0021.453 6.658 115.394 115.394 0 0046.065 0 113.608 113.608 0 0040.866-17.2 114.62 114.62 0 0041.393-50.278 113.73 113.73 0 006.659-21.453 115.394 115.394 0 000-46.065 113.662 113.662 0 00-17.2-40.865A114.617 114.617 0 00172.485 22.7a113.752 113.752 0 00-21.453-6.659A115.148 115.148 0 00128 13.714v-.001z" fill="url(#paint0_linear)"/><path d="M155.028 143.56c0-14.333-8.6-19.247-25.8-21.294-12.286-1.638-14.746-4.914-14.746-10.648s4.1-9.419 12.286-9.419c7.371 0 11.467 2.457 13.514 8.6a3.079 3.079 0 002.867 2.047h6.552a2.8 2.8 0 002.867-2.866v-.41a20.46 20.46 0 00-18.429-16.79v-9.828c0-1.638-1.229-2.867-3.276-3.277h-6.143c-1.638 0-2.867 1.229-3.277 3.277v9.419c-12.286 1.638-20.066 9.829-20.066 20.067 0 13.514 8.19 18.837 25.39 20.886 11.467 2.047 15.153 4.5 15.153 11.057s-5.734 11.057-13.514 11.057c-10.648 0-14.334-4.505-15.562-10.648a2.994 2.994 0 00-2.866-2.457h-6.963a2.801 2.801 0 00-2.866 2.867v.41c1.637 10.237 8.19 17.609 21.7 19.657v9.829c0 1.637 1.229 2.866 3.276 3.276h6.143c1.638 0 2.867-1.229 3.277-3.276v-9.829c12.286-2.048 20.476-10.648 20.476-21.705l.007-.002z" fill="#fff"/><path d="M107.114 186.561a61.283 61.283 0 01-40.19-57.537 61.281 61.281 0 0140.19-57.538 4.113 4.113 0 002.457-4.1v-5.733a3.11 3.11 0 00-2.457-3.276 2.467 2.467 0 00-1.638.409 73.694 73.694 0 000 140.466 2.482 2.482 0 002.261.122 2.492 2.492 0 001.425-1.76c.41-.409.41-.819.41-1.637v-5.734c-.001-1.225-1.23-2.863-2.458-3.682zM150.52 58.79a2.489 2.489 0 00-3.686 1.638c-.41.41-.41.819-.41 1.638v5.733a5.433 5.433 0 002.457 4.1 61.282 61.282 0 010 115.075 4.113 4.113 0 00-2.457 4.1v5.733a3.11 3.11 0 002.457 3.276 2.463 2.463 0 001.638-.409 74.012 74.012 0 000-140.876l.001-.008z" fill="#fff"/><mask id="a" maskUnits="userSpaceOnUse" x="30" y="30" width="196" height="197"><path d="M30 30h196v196.683H30V30z" fill="#fff"/></mask><g mask="url(#a)"><path d="M226 128.342c0 54.312-43.876 98.341-98 98.341s-98-44.029-98-98.341C30 74.029 73.876 30 128 30s98 44.029 98 98.342z" fill="#8150E6"/></g><path d="M222.338 155.059l-69.771-68.898-39.758-7.45-23.268 87.862 58.711 58.002c35.72-7.532 64.28-34.58 74.086-69.516z" fill="#3C176B"/><path d="M119.54 158.872v-54.367h13.692c4.603 0 8.829.586 12.681 1.759 3.849 1.172 7.183 2.996 10.001 5.471.386.339.758.696 1.122 1.065.047-7.37-2.612-14.714-6.376-21.355a47.022 47.022 0 00-12.903-1.79h-33.219v69.149c5.048.057 9.978.469 15.002.068z" fill="#6B42BD"/><path d="M177.048 115.381c-2.382-5.774-5.557-10.571-9.525-14.393a38.39 38.39 0 00-13.693-8.532 46.8 46.8 0 00-3.17-1.012c3.764 6.641 6.423 13.985 6.376 21.355 2.285 2.315 3.745 11.294 5.115 14.739l-42.611 39.037v-7.704c-5.024.401-9.954-.01-15.002-.068v22.62h31.433c5.079 0 10.258-.931 15.537-2.8 5.278-1.866 10.08-4.689 14.407-8.467 4.326-3.777 7.858-8.552 10.597-14.328 2.738-5.774 4.108-12.613 4.108-20.516 0-7.815-1.191-14.155-3.572-19.931z" fill="#9B74EC"/><path d="M115.732 151.705c4.683 0 9.109-.586 13.276-1.758 4.167-1.173 7.799-2.997 10.894-5.471 3.096-2.475 5.537-5.687 7.323-9.64 1.786-3.95 2.679-8.747 2.679-14.393 0-5.556-.795-9.878-2.382-13.874-1.588-3.993-3.791-7.23-6.608-9.704-2.818-2.475-6.152-4.299-10.001-5.47-3.851-1.173-8.078-1.76-12.681-1.76h-13.691v62.07h11.191zM89.538 74.786h33.219c5.555 0 10.913.934 16.074 2.8a38.393 38.393 0 0113.692 8.533c3.969 3.822 7.144 8.619 9.525 14.393 2.382 5.776 3.572 12.116 3.572 19.931 0 7.903-1.369 14.741-4.108 20.515-2.738 5.777-6.271 10.551-10.596 14.329-4.327 3.778-9.129 6.6-14.407 8.467-5.28 1.868-10.459 2.801-15.538 2.801H89.538V74.786z" fill="#fff"/></g><defs><linearGradient id="paint0_linear" x1="215.808" y1="34.559" x2="52.736" y2="226.816" gradientUnits="userSpaceOnUse"><stop stop-color="#B6509E"/><stop offset="1" stop-color="#2EBAC6"/></linearGradient><clipPath id="clip0"><path fill="#fff" d="M0 0h256v256H0z"/></clipPath></defs></svg>