<svg width="256" height="256" viewBox="0 0 256 256" fill="none" xmlns="http://www.w3.org/2000/svg"><g clip-path="url(#clip0_1614_1889)"><path d="M128 256c70.692 0 128-57.308 128-128C256 57.308 198.692 0 128 0 57.308 0 0 57.307 0 128c0 70.692 57.307 128 128 128z" fill="#fff"/><path fill-rule="evenodd" clip-rule="evenodd" d="M196.01 198.56C214.499 180.735 226 155.711 226 128c0-32.747-16.062-61.743-40.737-79.538-33.977 3.88-62.205 19.676-71.963 42.294h91.14l-10.29 23.524H108.4s-.537 9.016-.49 13.23c.068 6.15.49 13.23.49 13.23h74.48l-9.8 22.741h-54.39c10.77 20.36 41.104 35.052 77.32 35.079zm-28.6 19.193C155.351 223.056 142.019 226 128 226c-54.124 0-98-43.876-98-98s43.876-98 98-98a98.112 98.112 0 0125.936 3.469c-31.73 5.806-57.821 27.867-69.427 57.287H64.3L54.01 114.28h25.97v10.78c0 1.801 0 2.388.013 2.975.024 1.155.098 2.308.315 12.705H63.32l-9.31 22.741h32.239c13.492 30.417 37.627 48.418 81.161 54.272z" fill="url(#paint0_linear_1614_1889)"/><path d="M128 256a129.005 129.005 0 01-25.8-2.6 127.32 127.32 0 01-45.77-19.261 128.366 128.366 0 01-46.375-56.315A127.355 127.355 0 012.6 153.8a129.251 129.251 0 010-51.593 127.309 127.309 0 0119.26-45.77 128.372 128.372 0 0156.317-46.378A127.328 127.328 0 01102.2 2.6a129.244 129.244 0 0151.593 0 127.31 127.31 0 0145.77 19.26 128.373 128.373 0 0146.375 56.316A127.33 127.33 0 01253.4 102.2a129.26 129.26 0 010 51.593 127.297 127.297 0 01-19.26 45.77 128.38 128.38 0 01-56.316 46.375A127.394 127.394 0 01153.8 253.4 129.012 129.012 0 01128 256zm0-242.287a115.145 115.145 0 00-23.033 2.322A113.656 113.656 0 0064.1 33.232a114.622 114.622 0 00-41.4 50.283 113.694 113.694 0 00-6.659 21.452 115.397 115.397 0 000 46.065 113.66 113.66 0 0017.2 40.866 114.631 114.631 0 0050.282 41.407 113.718 113.718 0 0021.453 6.658 115.394 115.394 0 0046.065 0 113.608 113.608 0 0040.866-17.2 114.62 114.62 0 0041.393-50.278 113.73 113.73 0 006.659-21.453 115.394 115.394 0 000-46.065 113.662 113.662 0 00-17.2-40.865A114.617 114.617 0 00172.485 22.7a113.752 113.752 0 00-21.453-6.659A115.148 115.148 0 00128 13.714v-.001z" fill="url(#paint1_linear_1614_1889)"/></g><defs><linearGradient id="paint0_linear_1614_1889" x1="53.03" y1="185.82" x2="201.5" y2="70.18" gradientUnits="userSpaceOnUse"><stop offset=".333" stop-color="#15BCFF"/><stop offset=".664" stop-color="#406BEE"/><stop offset=".925" stop-color="#AE3EEB"/></linearGradient><linearGradient id="paint1_linear_1614_1889" x1="215.808" y1="34.559" x2="52.736" y2="226.816" gradientUnits="userSpaceOnUse"><stop stop-color="#B6509E"/><stop offset="1" stop-color="#2EBAC6"/></linearGradient><clipPath id="clip0_1614_1889"><path fill="#fff" d="M0 0h256v256H0z"/></clipPath></defs></svg>