<svg width="256" height="256" viewBox="0 0 256 256" fill="none" xmlns="http://www.w3.org/2000/svg"><g clip-path="url(#clip0)"><path d="M128 256.001c70.693 0 128-57.308 128-128 0-70.693-57.307-128-128-128C57.308 0 0 57.308 0 128s57.308 128 128 128z" fill="#fff"/><path d="M128 256.001a129.012 129.012 0 01-25.8-2.6 127.32 127.32 0 01-45.77-19.261 128.371 128.371 0 01-46.374-56.315A127.377 127.377 0 012.6 153.801a129.251 129.251 0 010-51.593 127.308 127.308 0 0119.26-45.77A128.372 128.372 0 0178.177 10.06 127.334 127.334 0 01102.2 2.6a129.244 129.244 0 0151.593 0 127.304 127.304 0 0145.77 19.26 128.36 128.36 0 0146.375 56.317A127.252 127.252 0 01253.4 102.2a129.224 129.224 0 010 51.593 127.287 127.287 0 01-19.26 45.77 128.387 128.387 0 01-56.316 46.375A127.467 127.467 0 01153.8 253.4 128.997 128.997 0 01128 256zm0-242.287a115.153 115.153 0 00-23.033 2.322A113.658 113.658 0 0064.1 33.233a114.622 114.622 0 00-41.4 50.283 113.687 113.687 0 00-6.659 21.452 115.397 115.397 0 000 46.065 113.66 113.66 0 0017.2 40.866 114.631 114.631 0 0050.282 41.407 113.87 113.87 0 0021.453 6.658 115.394 115.394 0 0046.065 0 113.618 113.618 0 0040.866-17.2 114.62 114.62 0 0041.393-50.278 113.657 113.657 0 006.659-21.453 115.394 115.394 0 000-46.065 113.644 113.644 0 00-17.2-40.865A114.617 114.617 0 00172.485 22.7a113.706 113.706 0 00-21.453-6.66A115.14 115.14 0 00128 13.716v-.001z" fill="url(#paint0_linear)"/><path d="M155.029 143.561c0-14.333-8.601-19.247-25.801-21.294-12.286-1.638-14.745-4.914-14.745-10.648s4.1-9.419 12.286-9.419c7.371 0 11.466 2.457 13.513 8.6a3.089 3.089 0 002.868 2.047h6.552a2.8 2.8 0 002.867-2.866v-.41a20.464 20.464 0 00-18.43-16.79v-9.828c0-1.638-1.229-2.867-3.276-3.277h-6.143c-1.638 0-2.866 1.229-3.276 3.277v9.419c-12.286 1.638-20.066 9.829-20.066 20.067 0 13.514 8.189 18.837 25.389 20.886 11.467 2.047 15.153 4.5 15.153 11.057s-5.733 11.057-13.513 11.057c-10.648 0-14.334-4.505-15.562-10.648a2.992 2.992 0 00-2.867-2.457h-6.962a2.804 2.804 0 00-2.667 1.759 2.783 2.783 0 00-.199 1.108v.41c1.637 10.237 8.19 17.609 21.7 19.657v9.829c0 1.637 1.229 2.866 3.276 3.276h6.143c1.638 0 2.866-1.229 3.276-3.276v-9.829c12.286-2.048 20.477-10.648 20.477-21.705l.007-.002z" fill="#fff"/><path d="M107.114 186.562a61.28 61.28 0 01-29.148-92.63 61.281 61.281 0 0129.148-22.445 4.108 4.108 0 002.457-4.1v-5.733a3.111 3.111 0 00-2.457-3.276 2.467 2.467 0 00-1.638.409 73.695 73.695 0 000 140.466 2.497 2.497 0 003.186-.587 2.49 2.49 0 00.5-1.051c.41-.409.41-.819.41-1.637v-5.734c-.001-1.225-1.23-2.863-2.458-3.682zM150.52 58.791a2.485 2.485 0 00-2.261-.122 2.498 2.498 0 00-1.425 1.76c-.41.41-.41.819-.41 1.638V67.8a5.435 5.435 0 002.457 4.1 61.28 61.28 0 010 115.075 4.11 4.11 0 00-2.457 4.1v5.733a3.115 3.115 0 002.457 3.276 2.472 2.472 0 001.638-.409 74.012 74.012 0 0037.113-114.006 74.01 74.01 0 00-37.113-26.87l.001-.008z" fill="#fff"/><path d="M128 226c54.124 0 98-43.876 98-98s-43.876-98-98-98-98 43.876-98 98 43.876 98 98 98z" fill="#000" stroke="#000" stroke-width="1.237" stroke-miterlimit="11.339"/><path d="M73.938 73.49c-4.132 4.34-7.541 7.99-7.576 8.058-.034.103 3.685 3.754 8.265 8.092 4.58 4.373 8.574 8.196 8.85 8.437l.516.482-.93 1.549c-8.161 13.498-9.848 29.751-4.718 44.696.965 2.824 2.618 6.439 4.03 8.815.688 1.171.998 1.928.929 2.066-.069.138-4.235 4.545-9.263 9.814-5.027 5.234-9.125 9.607-9.194 9.676-.034.103 14.05 13.705 15.392 14.807l.517.447 7.954-8.298a5258.58 5258.58 0 009.09-9.539l1.172-1.17 1.102.688c5.612 3.581 12.189 6.061 19.455 7.369 3.65.655 10.606.827 14.497.345 7.506-.861 14.944-3.375 21.039-7.059l1.584-.965 1.687 1.653c3.685 3.581 17.459 16.666 17.596 16.735.138.069 15.255-15.736 15.22-15.943-.034-.103-10.399-10.055-16.735-16.012l-2.1-1.997.964-1.584c8.092-13.464 9.779-29.786 4.545-44.833-.757-2.204-3.065-7.163-4.407-9.435l-.655-1.137 8.85-9.263c4.855-5.061 8.815-9.297 8.781-9.4-.138-.344-15.634-14.979-15.84-14.979-.138 0-4.029 3.96-8.678 8.85-4.648 4.855-8.505 8.85-8.608 8.884-.069.034-.517-.172-.93-.482-1.171-.792-4.132-2.41-5.785-3.168-5.027-2.307-9.71-3.72-15.151-4.511-2.824-.413-11.294-.482-13.911-.103-6.267.895-11.398 2.444-16.632 5.061a57.925 57.925 0 00-3.96 2.1l-1.24.758-1.411-1.377c-.758-.758-4.201-3.994-7.61-7.266-3.41-3.236-6.887-6.542-7.714-7.369l-1.515-1.48-7.472 7.989zm57.815 22.452c5.475.654 10.365 2.513 14.876 5.681 2.307 1.619 5.75 5.062 7.369 7.369 9.194 13.016 7.437 30.716-4.133 41.562-9.882 9.229-24.172 11.295-36.19 5.166-8.677-4.442-14.807-12.569-16.77-22.314-.62-3.099-.62-8.884 0-11.949.586-3.03 1.378-5.199 2.859-8.229 5.922-11.915 18.766-18.87 31.989-17.286z" fill="#fff"/></g><defs><linearGradient id="paint0_linear" x1="215.809" y1="34.56" x2="52.736" y2="226.817" gradientUnits="userSpaceOnUse"><stop stop-color="#B6509E"/><stop offset="1" stop-color="#2EBAC6"/></linearGradient><clipPath id="clip0"><path fill="#fff" d="M0 0h256v256H0z"/></clipPath></defs></svg>