<svg width="256" height="256" viewBox="0 0 256 256" fill="none" xmlns="http://www.w3.org/2000/svg"><g clip-path="url(#clip0_1749_1898)"><path d="M128 256c70.692 0 128-57.308 128-128C256 57.308 198.692 0 128 0 57.308 0 0 57.307 0 128c0 70.692 57.307 128 128 128z" fill="#fff"/><path d="M128 226c54.124 0 98-43.876 98-98s-43.876-98-98-98-98 43.876-98 98 43.876 98 98 98z" fill="#1969FF"/><path d="M122.057 61.165c3.302-1.74 8.326-1.74 11.627 0l33.691 17.761c1.989 1.049 3.081 2.61 3.276 4.223h.033v89.278c-.044 1.759-1.147 3.507-3.309 4.647l-33.691 17.761c-3.301 1.741-8.325 1.741-11.627 0l-33.69-17.761c-2.153-1.135-3.187-2.895-3.238-4.647a6.175 6.175 0 010-.449V83.75a4.629 4.629 0 010-.37v-.23h.015c.15-1.631 1.192-3.153 3.223-4.224l33.69-17.761zm43.267 71.62l-31.65 16.741c-3.297 1.743-8.313 1.743-11.61 0l-31.58-16.704v39.33l31.58 16.614c1.866.999 3.807 1.971 5.696 2.014l.109.001c1.886.006 3.717-.952 5.573-1.86l31.882-16.913v-39.223zm-85.477 37.707c0 3.423.394 5.672 1.177 7.257.649 1.313 1.622 2.317 3.4 3.539l.101.069c.39.265.82.543 1.343.87l.617.381 1.894 1.153-2.717 4.532-2.12-1.292-.356-.221a46.066 46.066 0 01-1.595-1.032c-5.066-3.446-6.956-7.202-6.993-15.018v-.238h5.249zm45.473-61.441a4.738 4.738 0 00-.684.293l-33.64 17.818-.1.056-.029.016.053.031.077.041 33.639 17.819c.209.111.439.209.684.293v-36.367zm5.36 0v36.367c.245-.084.475-.182.684-.293l33.639-17.819c.036-.018.069-.037.101-.055l.029-.017-.053-.03-.077-.042-33.639-17.818a4.738 4.738 0 00-.684-.293zm34.644-19.524l-30.242 15.887 30.242 15.887V89.527zm-74.84 0v31.774l30.243-15.887-30.243-15.887zm40.851-23.614c-1.751-.926-4.919-.926-6.67 0l-33.668 17.8a3.723 3.723 0 00-.101.056l-.029.016.053.03.077.042 33.668 17.8c1.751.926 4.919.926 6.67 0l33.668-17.8.101-.055.029-.017-.053-.03-.077-.042-33.668-17.8zm39.003 1.794l2.12 1.292.356.22c.613.382 1.121.71 1.595 1.033 5.066 3.446 6.956 7.202 6.993 15.018v.238h-5.249c0-3.423-.394-5.672-1.177-7.257-.648-1.313-1.622-2.317-3.399-3.539l-.102-.069c-.39-.265-.82-.543-1.343-.87l-.617-.381-1.894-1.153 2.717-4.532z" fill="#fff"/><path d="M128 256a129.005 129.005 0 01-25.8-2.6 127.32 127.32 0 01-45.77-19.261 128.366 128.366 0 01-46.375-56.315A127.355 127.355 0 012.6 153.8a129.251 129.251 0 010-51.593 127.309 127.309 0 0119.26-45.77 128.372 128.372 0 0156.317-46.378A127.328 127.328 0 01102.2 2.6a129.244 129.244 0 0151.593 0 127.31 127.31 0 0145.77 19.26 128.373 128.373 0 0146.375 56.316A127.33 127.33 0 01253.4 102.2a129.26 129.26 0 010 51.593 127.297 127.297 0 01-19.26 45.77 128.38 128.38 0 01-56.316 46.375A127.394 127.394 0 01153.8 253.4 129.012 129.012 0 01128 256zm0-242.287a115.145 115.145 0 00-23.033 2.322A113.656 113.656 0 0064.1 33.232a114.622 114.622 0 00-41.4 50.283 113.694 113.694 0 00-6.659 21.452 115.397 115.397 0 000 46.065 113.66 113.66 0 0017.2 40.866 114.631 114.631 0 0050.282 41.407 113.718 113.718 0 0021.453 6.658 115.394 115.394 0 0046.065 0 113.608 113.608 0 0040.866-17.2 114.62 114.62 0 0041.393-50.278 113.73 113.73 0 006.659-21.453 115.394 115.394 0 000-46.065 113.662 113.662 0 00-17.2-40.865A114.617 114.617 0 00172.485 22.7a113.752 113.752 0 00-21.453-6.659A115.148 115.148 0 00128 13.714v-.001z" fill="url(#paint0_linear_1749_1898)"/></g><defs><linearGradient id="paint0_linear_1749_1898" x1="215.808" y1="34.559" x2="52.736" y2="226.816" gradientUnits="userSpaceOnUse"><stop stop-color="#B6509E"/><stop offset="1" stop-color="#2EBAC6"/></linearGradient><clipPath id="clip0_1749_1898"><path fill="#fff" d="M0 0h256v256H0z"/></clipPath></defs></svg>