<svg width="256" height="256" viewBox="0 0 256 256" fill="none" xmlns="http://www.w3.org/2000/svg"><g clip-path="url(#clip0_1759_24189)"><path d="M128 256c70.692 0 128-57.308 128-128C256 57.308 198.692 0 128 0 57.308 0 0 57.307 0 128c0 70.692 57.307 128 128 128z" fill="#fff"/><path d="M128 256a129.005 129.005 0 01-25.8-2.6 127.32 127.32 0 01-45.77-19.261 128.366 128.366 0 01-46.375-56.315A127.355 127.355 0 012.6 153.8a129.251 129.251 0 010-51.593 127.309 127.309 0 0119.26-45.77 128.371 128.371 0 0156.317-46.378A127.327 127.327 0 01102.2 2.6a129.244 129.244 0 0151.593 0 127.311 127.311 0 0145.77 19.26 128.373 128.373 0 0146.375 56.316A127.33 127.33 0 01253.4 102.2a129.26 129.26 0 010 51.593 127.297 127.297 0 01-19.26 45.77 128.38 128.38 0 01-56.316 46.375A127.394 127.394 0 01153.8 253.4 129.012 129.012 0 01128 256zm0-242.287a115.145 115.145 0 00-23.033 2.322A113.656 113.656 0 0064.1 33.232a114.621 114.621 0 00-41.4 50.283 113.692 113.692 0 00-6.659 21.452 115.397 115.397 0 000 46.065 113.66 113.66 0 0017.2 40.866 114.631 114.631 0 0050.282 41.407 113.718 113.718 0 0021.453 6.658 115.394 115.394 0 0046.065 0 113.608 113.608 0 0040.866-17.2 114.62 114.62 0 0041.393-50.278 113.73 113.73 0 006.659-21.453 115.394 115.394 0 000-46.065 113.662 113.662 0 00-17.2-40.865A114.617 114.617 0 00172.485 22.7a113.752 113.752 0 00-21.453-6.659A115.148 115.148 0 00128 13.714v-.001z" fill="url(#paint0_linear_1759_24189)"/><path d="M213.392 93.397h-4.622V74.922h-9.231v-9.23h-9.23V56.46h-9.231v-9.23h-18.46V38H93.397v9.23H74.936v9.23h-9.23v9.231h-9.23v9.23H47.23v18.476H38v16.257h180V93.397h-4.608z" fill="#FA34F3"/><path d="M213.392 107.235H38v38.117h180v-38.117h-4.608z" fill="#CF15F9"/><path d="M213.392 134.926H38v27.692h9.23v4.276h161.54v-4.276H218v-27.692h-4.608z" fill="#AC15F9"/><path d="M204.162 162.618H47.231v18.46h9.244v9.231h9.23l.16 5.976h124.444v-5.976h9.23v-9.231h9.231v-18.46h-4.608z" fill="#8F17F9"/><path d="M125.696 218h-32.3v-9.23h-18.46v-9.231h-9.23v-9.23h124.603v9.23h-9.231v9.231h-18.46V218h-36.922z" fill="#7E18F8"/><path d="M154.813 142.184v3.168h6.35v-9.518h-6.35v6.35zm-6.35 3.168h-15.884v6.365h12.701v6.35h6.351v-6.35h3.182v-6.365h-6.35zm-9.533-9.518h15.883v-6.365H138.93v6.365zm-6.351-15.898v9.533h6.351v-9.533h-6.351zm22.234-6.35h-3.183v-6.351h-6.35v6.351h-6.35v6.35h22.233v-6.35h-6.35zm41.299 0h-28.584v6.35h12.701v31.781h6.35v-31.781h12.715v-6.35h-3.182zm-76.248 0v15.883h-15.883v-15.883h-6.35v38.131h6.35v-15.883h15.883v15.883h6.35v-38.131h-6.35zm-34.949 0H65.864v6.35H91.28v-6.35h-6.365zm6.365 31.766v-15.883H72.214v6.365h12.701v9.518h6.365zm-25.416 6.365h19.051v-6.365H65.864v6.365zM59.5 119.936v25.416h6.364v-25.416H59.5z" fill="#fff"/></g><defs><linearGradient id="paint0_linear_1759_24189" x1="215.808" y1="34.559" x2="52.736" y2="226.816" gradientUnits="userSpaceOnUse"><stop stop-color="#B6509E"/><stop offset="1" stop-color="#2EBAC6"/></linearGradient><clipPath id="clip0_1759_24189"><path fill="#fff" d="M0 0h256v256H0z"/></clipPath></defs></svg>