<svg width="256" height="256" viewBox="0 0 256 256" fill="none" xmlns="http://www.w3.org/2000/svg"><g clip-path="url(#clip0_2_3167)"><path d="M128 256c70.692 0 128-57.308 128-128C256 57.308 198.692 0 128 0 57.308 0 0 57.307 0 128c0 70.692 57.307 128 128 128z" fill="#fff"/><path d="M127.999 226.284c54.281 0 98.285-44.004 98.285-98.285s-44.004-98.285-98.285-98.285-98.285 44.004-98.285 98.285 44.004 98.285 98.285 98.285z" fill="url(#paint0_linear_2_3167)"/><path d="M171.238 68.661l-12.035-12.015-40.173 40.172 40.172 40.193 12.035-12.035-28.157-28.158 28.158-28.157zm-34.267 90.519l-40.172-40.192-12.036 12.035 28.157 28.157-28.157 28.158 12.036 12.015 40.172-40.173zm-23.075-57.275l40.182 40.182-11.978 11.978-40.182-40.182 11.978-11.978z" fill="#fff"/><path d="M128 256a129.005 129.005 0 01-25.8-2.6 127.32 127.32 0 01-45.77-19.261 128.366 128.366 0 01-46.375-56.315A127.355 127.355 0 012.6 153.8a129.251 129.251 0 010-51.593 127.309 127.309 0 0119.26-45.77 128.371 128.371 0 0156.317-46.378A127.327 127.327 0 01102.2 2.6a129.244 129.244 0 0151.593 0 127.311 127.311 0 0145.77 19.26 128.373 128.373 0 0146.375 56.316A127.33 127.33 0 01253.4 102.2a129.26 129.26 0 010 51.593 127.297 127.297 0 01-19.26 45.77 128.38 128.38 0 01-56.316 46.375A127.394 127.394 0 01153.8 253.4 129.012 129.012 0 01128 256zm0-242.287a115.145 115.145 0 00-23.033 2.322A113.656 113.656 0 0064.1 33.232a114.621 114.621 0 00-41.4 50.283 113.692 113.692 0 00-6.659 21.452 115.397 115.397 0 000 46.065 113.66 113.66 0 0017.2 40.866 114.631 114.631 0 0050.282 41.407 113.718 113.718 0 0021.453 6.658 115.394 115.394 0 0046.065 0 113.608 113.608 0 0040.866-17.2 114.62 114.62 0 0041.393-50.278 113.73 113.73 0 006.659-21.453 115.394 115.394 0 000-46.065 113.662 113.662 0 00-17.2-40.865A114.617 114.617 0 00172.485 22.7a113.752 113.752 0 00-21.453-6.659A115.148 115.148 0 00128 13.714v-.001z" fill="url(#paint1_linear_2_3167)"/></g><defs><linearGradient id="paint0_linear_2_3167" x1="29.714" y1="127.999" x2="226.284" y2="127.999" gradientUnits="userSpaceOnUse"><stop stop-color="#01AEC9"/><stop offset="1" stop-color="#1E8FCA"/></linearGradient><linearGradient id="paint1_linear_2_3167" x1="215.808" y1="34.559" x2="52.736" y2="226.816" gradientUnits="userSpaceOnUse"><stop stop-color="#B6509E"/><stop offset="1" stop-color="#2EBAC6"/></linearGradient><clipPath id="clip0_2_3167"><path fill="#fff" d="M0 0h256v256H0z"/></clipPath></defs></svg>