<svg width="256" height="256" viewBox="0 0 256 256" fill="none" xmlns="http://www.w3.org/2000/svg"><g clip-path="url(#clip0_1749_1925)"><path d="M128 256c70.692 0 128-57.308 128-128C256 57.308 198.692 0 128 0 57.308 0 0 57.307 0 128c0 70.692 57.307 128 128 128z" fill="#fff"/><path d="M171.885 51.2c-18.126 0-32.913 14.833-33.391 33.014v36.843c-3.339 0-6.678.478-10.494.478s-7.155 0-10.495.479v-37.8c0-18.181-15.264-33.014-33.868-32.535-17.65 0-31.96 14.832-32.437 32.535v88.039c.477 18.182 15.265 33.015 33.868 32.536 18.127-.478 32.437-14.833 32.437-32.536V135.41c3.34 0 6.679-.478 10.495-.478 3.816 0 7.155 0 10.494-.478v37.321c.478 18.181 15.265 33.014 33.868 32.536 18.127-.479 32.438-14.833 32.438-32.536v-87.56c0-18.182-14.788-33.015-32.915-33.015zM84.591 64.597c10.972 0 19.558 8.613 19.558 19.617v38.757c-9.54 1.435-19.08 4.306-28.144 8.134-3.816 1.913-7.632 3.827-10.971 6.698V84.214c0-10.526 8.586-19.617 19.557-19.617zm19.558 107.656c0 11.005-8.586 19.618-19.558 19.618-10.971 0-19.557-8.613-19.557-19.618v-8.612c0-7.656 6.2-15.312 16.695-19.617 7.155-3.35 14.788-5.264 22.897-6.699l-.477 34.928zm67.736 19.618c-10.971 0-19.557-8.613-19.557-19.618v-38.756c9.54-1.435 19.081-4.306 28.144-8.134 3.816-1.914 7.632-3.828 10.971-6.699v53.589c0 11.005-9.063 19.618-19.558 19.618zm2.862-78.948c-7.155 3.349-14.787 5.263-22.896 6.698V84.214c0-11.004 8.586-19.617 19.558-19.617 10.971 0 19.557 8.613 19.557 19.617v8.613c.477 8.134-5.724 15.311-16.219 20.096z" fill="url(#paint0_linear_1749_1925)"/><path d="M128 256a129.005 129.005 0 01-25.8-2.6 127.32 127.32 0 01-45.77-19.261 128.366 128.366 0 01-46.375-56.315A127.355 127.355 0 012.6 153.8a129.251 129.251 0 010-51.593 127.309 127.309 0 0119.26-45.77 128.372 128.372 0 0156.317-46.378A127.328 127.328 0 01102.2 2.6a129.244 129.244 0 0151.593 0 127.31 127.31 0 0145.77 19.26 128.373 128.373 0 0146.375 56.316A127.33 127.33 0 01253.4 102.2a129.26 129.26 0 010 51.593 127.297 127.297 0 01-19.26 45.77 128.38 128.38 0 01-56.316 46.375A127.394 127.394 0 01153.8 253.4 129.012 129.012 0 01128 256zm0-242.287a115.145 115.145 0 00-23.033 2.322A113.656 113.656 0 0064.1 33.232a114.622 114.622 0 00-41.4 50.283 113.694 113.694 0 00-6.659 21.452 115.397 115.397 0 000 46.065 113.66 113.66 0 0017.2 40.866 114.631 114.631 0 0050.282 41.407 113.718 113.718 0 0021.453 6.658 115.394 115.394 0 0046.065 0 113.608 113.608 0 0040.866-17.2 114.62 114.62 0 0041.393-50.278 113.73 113.73 0 006.659-21.453 115.394 115.394 0 000-46.065 113.662 113.662 0 00-17.2-40.865A114.617 114.617 0 00172.485 22.7a113.752 113.752 0 00-21.453-6.659A115.148 115.148 0 00128 13.714v-.001z" fill="url(#paint1_linear_1749_1925)"/></g><defs><linearGradient id="paint0_linear_1749_1925" x1="128" y1="51.2" x2="21.778" y2="157.1" gradientUnits="userSpaceOnUse"><stop stop-color="#00E8A2"/><stop offset="1" stop-color="#00ADE8"/></linearGradient><linearGradient id="paint1_linear_1749_1925" x1="215.808" y1="34.559" x2="52.736" y2="226.816" gradientUnits="userSpaceOnUse"><stop stop-color="#B6509E"/><stop offset="1" stop-color="#2EBAC6"/></linearGradient><clipPath id="clip0_1749_1925"><path fill="#fff" d="M0 0h256v256H0z"/></clipPath></defs></svg>