<svg xmlns="http://www.w3.org/2000/svg" width="256" height="256.001" viewBox="0 0 256 256.001"><defs><linearGradient id="a" x1=".843" x2=".206" y1=".135" y2=".886" gradientUnits="objectBoundingBox"><stop offset="0" stop-color="#b6509e"/><stop offset="1" stop-color="#2ebac6"/></linearGradient></defs><circle cx="128" cy="128" r="128" fill="#fff"/><path fill="url(#a)" d="M128 256a128.976 128.976 0 01-25.8-2.6 127.309 127.309 0 01-45.77-19.261 128.366 128.366 0 01-46.375-56.315A127.357 127.357 0 012.6 153.8a129.251 129.251 0 010-51.593 127.31 127.31 0 0119.26-45.77 128.372 128.372 0 0156.317-46.378A127.33 127.33 0 01102.2 2.6a129.244 129.244 0 0151.593 0 127.308 127.308 0 0145.77 19.26 128.367 128.367 0 0146.375 56.316A127.343 127.343 0 01253.4 102.2a129.248 129.248 0 010 51.593 127.3 127.3 0 01-19.26 45.77 128.382 128.382 0 01-56.316 46.375A127.4 127.4 0 01153.8 253.4 128.977 128.977 0 01128 256zm0-242.287a115.145 115.145 0 00-23.033 2.322A113.657 113.657 0 0064.1 33.232a114.622 114.622 0 00-41.4 50.283 113.7 113.7 0 00-6.659 21.452 115.4 115.4 0 000 46.065 113.66 113.66 0 0017.2 40.866 114.627 114.627 0 0050.282 41.407 113.75 113.75 0 0021.453 6.658 115.381 115.381 0 0046.065 0 113.609 113.609 0 0040.866-17.2 114.622 114.622 0 0041.393-50.278 113.741 113.741 0 006.659-21.453 115.4 115.4 0 000-46.065 113.662 113.662 0 00-17.2-40.865A114.619 114.619 0 00172.485 22.7a113.74 113.74 0 00-21.453-6.659A115.145 115.145 0 00128 13.714z"/><g fill-rule="evenodd"><path fill="#b3d234" d="M88.028 64.281c3.442-3.923 6.58-7.271 9.577-10.075-50.656-1.64-35.915 35.26-52.415 72.76-19.008 43.188 2.237 59.647 33.894 64.775a69.353 69.353 0 01-10.7-17.633C47.859 148.066 56.12 100.627 88.028 64.281"/><path fill="#0095d9" d="M209.917 110.287c-4.713 13.377-13.364 28.389-25.593 43.163a122.676 122.676 0 01-31.067 27.143c-12.644 8.255-28.33 13.126-45.867 13.126a179.556 179.556 0 01-28.31-1.982 57.98 57.98 0 0018.958 14.956c45.8 22.318 48.689-19.141 97.143-40.178 27.209-11.814 27.309-34.909 14.735-56.228"/><path fill="#eee809" d="M153.248 67.143a60.084 60.084 0 0118.9 6.747c15.381 8.769 29.391 22.187 37.771 36.4 8.251-23.417 4.408-41.827-13.645-45.16-19.839-3.66-35.35-4.835-50.256-15.323-18.358-12.919-34.449-8.658-48.414 4.402.986.03 1.991.076 3.027.136 19.374 1.15 37.862 4.952 52.612 12.8"/><path fill="#51b849" d="M88.027 64.282c-31.907 36.345-40.168 83.784-19.644 109.825-9.216-21.8-8.576-48.989 4.418-70.7 17.292-28.9 51.976-41.5 80.446-36.265-14.755-7.847-33.246-11.644-52.611-12.799-1.041-.061-2.046-.1-3.032-.136-3 2.8-6.134 6.152-9.577 10.075"/><path fill="#00845d" d="M172.142 73.892a59.959 59.959 0 00-18.9-6.747c19.421 10.332 32.345 27.695 32.2 55.346-.13 23.992-12.429 45.2-32.188 58.1a122.591 122.591 0 0031.067-27.14c12.236-14.774 20.879-29.785 25.593-43.163-8.381-14.209-22.391-27.632-37.771-36.4"/><path fill="#005121" d="M150.047 167.45a47.137 47.137 0 01-65.314-14.152c-14.145-22.015-7.15-50.363 14.09-65.581 23.75-17.014 54.21-10.302 65.31 14.148 10.828 23.84 7.835 51.382-14.09 65.581m3.2-100.3c-28.47-5.234-63.154 7.362-80.446 36.265-12.988 21.705-13.634 48.899-4.412 70.692a69.241 69.241 0 0010.7 17.638 179.548 179.548 0 0028.3 1.977c17.542 0 33.228-4.871 45.867-13.125 19.764-12.9 32.062-34.112 32.188-58.1.15-27.653-12.779-45.013-32.2-55.345"/></g></svg>