<svg width="256" height="256" viewBox="0 0 256 256" fill="none" xmlns="http://www.w3.org/2000/svg"><g clip-path="url(#clip0_1765_1950)"><path d="M128 256c70.692 0 128-57.308 128-128C256 57.308 198.692 0 128 0 57.308 0 0 57.307 0 128c0 70.692 57.307 128 128 128z" fill="#fff"/><path d="M128 256a129.005 129.005 0 01-25.8-2.6 127.32 127.32 0 01-45.77-19.261 128.366 128.366 0 01-46.375-56.315A127.355 127.355 0 012.6 153.8a129.251 129.251 0 010-51.593 127.309 127.309 0 0119.26-45.77 128.371 128.371 0 0156.317-46.378A127.327 127.327 0 01102.2 2.6a129.244 129.244 0 0151.593 0 127.311 127.311 0 0145.77 19.26 128.373 128.373 0 0146.375 56.316A127.33 127.33 0 01253.4 102.2a129.26 129.26 0 010 51.593 127.297 127.297 0 01-19.26 45.77 128.38 128.38 0 01-56.316 46.375A127.394 127.394 0 01153.8 253.4 129.012 129.012 0 01128 256zm0-242.287a115.145 115.145 0 00-23.033 2.322A113.656 113.656 0 0064.1 33.232a114.622 114.622 0 00-41.4 50.283 113.692 113.692 0 00-6.659 21.452 115.397 115.397 0 000 46.065 113.66 113.66 0 0017.2 40.866 114.631 114.631 0 0050.282 41.407 113.718 113.718 0 0021.453 6.658 115.394 115.394 0 0046.065 0 113.608 113.608 0 0040.866-17.2 114.62 114.62 0 0041.393-50.278 113.73 113.73 0 006.659-21.453 115.394 115.394 0 000-46.065 113.662 113.662 0 00-17.2-40.865A114.617 114.617 0 00172.485 22.7a113.752 113.752 0 00-21.453-6.659A115.148 115.148 0 00128 13.714v-.001z" fill="url(#paint0_linear_1765_1950)"/><path d="M128 228c55.228 0 100-44.772 100-100S183.228 28 128 28 28 72.772 28 128s44.772 100 100 100z" fill="#fff"/><path fill-rule="evenodd" clip-rule="evenodd" d="M198.455 148.909l-28.031 39.073c-4.409 6.205-12.963 9.192-24.083 8.278-14.344-1.185-33.361-8.765-51.588-21.84-18.227-13.081-31.518-28.662-37.308-41.855-4.409-10.226-4.344-19.254.13-25.465l27.966-39.073c4.475-6.205 13.028-9.192 24.083-8.278 14.344 1.185 33.427 8.772 51.653 21.846 18.227 13.075 31.519 28.657 37.243 41.85 4.475 10.225 4.343 19.259-.065 25.464zM93.043 73.397c2.895-4.014 8.685-5.054 15.857-4.461 13.095 1.079 30.335 8.211 46.982 20.147 16.648 11.93 28.953 25.992 34.217 38.033 2.829 6.6 3.749 12.417.854 16.431l3.752 2.678-3.752-2.678-28.031 39.072c-2.829 4.007-8.619 5.053-15.792 4.455-13.094-1.073-30.4-8.212-47.047-20.142-16.648-11.936-28.953-25.998-34.151-38.032-2.895-6.607-3.75-12.424-.855-16.431l27.966-39.072z" fill="#fff"/><path fill-rule="evenodd" clip-rule="evenodd" d="M89.35 71.661c9.146-12.765 40.138-6.211 69.221 14.621 29.084 20.839 45.272 48.127 36.125 60.892l-27.965 39.073c-9.146 12.765-40.205 6.211-69.289-14.628-29.083-20.839-45.27-48.12-36.123-60.885l28.03-39.073z" fill="#fff"/><path fill-rule="evenodd" clip-rule="evenodd" d="M87.332 69.297c4.069-5.696 11.935-8.204 22.107-7.39 14.037 1.152 32.617 8.68 50.52 21.428 17.835 12.816 30.923 28.074 36.484 40.959 4.068 9.358 4.204 17.631.135 23.327l-27.938 39.06c-4.069 5.697-12.003 8.205-22.107 7.392-14.037-1.221-32.686-8.68-50.52-21.496-17.903-12.749-30.923-28.008-36.552-40.892-4.069-9.358-4.204-17.631-.135-23.327l28.006-39.06zm105.381 75.544v-.068c3.255-4.475 2.577-11.121-.611-18.58-5.357-12.275-17.902-26.719-34.991-38.925-17.021-12.206-34.72-19.462-48.079-20.547-8.138-.678-14.579.814-17.834 5.357l-.136.271c-3.052 4.543-2.373 10.986.814 18.31C97.233 103 109.78 117.444 126.8 129.65c17.021 12.206 34.719 19.462 48.078 20.547 8.002.611 14.308-.813 17.631-5.086l.204-.339v.068zm-43.535-46.52c8.544 6.104 14.85 13.36 17.495 19.531 1.559 3.458 1.966 6.51.406 8.612-1.492 2.102-4.543 2.713-8.272 2.373-6.714-.542-15.529-4.204-24.074-10.307-8.544-6.103-14.851-13.292-17.496-19.463-1.492-3.458-1.898-6.51-.407-8.612 1.492-2.102 4.544-2.712 8.342-2.44 6.646.61 15.529 4.204 24.006 10.307z" fill="#0E0F23"/><path d="M197.72 127.565a45.275 45.275 0 00-1.278-3.271c-5.56-12.884-18.649-28.143-36.483-40.96-17.903-12.748-36.484-20.275-50.521-21.428-10.172-.813-18.038 1.695-22.106 7.392l-28.006 39.06c-4.069 5.696-3.934 13.969.135 23.327 3.72 8.514 10.667 18.065 20.118 27.244a21.344 21.344 0 002.497-.396c5.035-1.124 9.863-5.591 14.67-10.04 6.2-5.737 12.366-11.444 18.898-9.903 4.573 1.017 8.21 5.845 11.944 10.802 1.581 2.099 3.179 4.221 4.874 6.086 5.425 6.273 11.392 9.007 17.427 7.721 6.903-1.36 12.155-7.418 17.04-14.256-12.031-2.728-26.304-9.377-40.13-19.292C109.778 117.444 97.233 103 91.876 90.658c-3.187-7.323-3.866-13.766-.815-18.309l.137-.27c3.255-4.544 9.696-6.036 17.834-5.358 13.359 1.085 31.058 8.34 48.079 20.547 17.066 12.19 29.6 26.612 34.969 38.875.265.012.533.033.802.061 1.925.205 3.509.678 4.838 1.361z" fill="url(#paint1_linear_1765_1950)"/><path d="M166.672 117.852c-2.644-6.171-8.95-13.427-17.495-19.53-8.476-6.103-17.36-9.698-24.005-10.308-3.798-.271-6.85.339-8.342 2.441-1.492 2.102-1.085 5.154.407 8.612 2.644 6.171 8.951 13.36 17.496 19.463 8.544 6.103 17.36 9.765 24.073 10.307 3.73.34 6.781-.271 8.273-2.373 1.56-2.102 1.153-5.154-.407-8.612z" fill="url(#paint2_linear_1765_1950)"/><path fill-rule="evenodd" clip-rule="evenodd" d="M168.141 155.56c5.289.881 10.172 1.085 14.241.407.542-.068.95-.61.882-1.153-.136-.542-.611-.949-1.154-.881-3.933.678-8.544.474-13.63-.408-.542-.067-1.084.339-1.152.882-.068.542.271 1.085.813 1.153zm-8.002-1.763c1.356.339 2.645.678 4.001.949.542.136 1.086-.203 1.153-.746a1.01 1.01 0 00-.747-1.22c-1.288-.272-2.576-.611-3.864-.95a.992.992 0 00-1.289.678c-.136.543.203 1.085.746 1.289zM84.392 89.578c3.798 15.529 18.717 30.041 30.72 40.349.407.407 1.085.339 1.424-.068.339-.474.338-1.085-.137-1.424-11.663-10.104-26.31-24.209-29.972-39.332-.136-.542-.746-.88-1.289-.745a1.01 1.01 0 00-.746 1.22zm-.882-6.239c0 .678.069 1.425.137 2.103.068.543.61.95 1.152.881.543-.067.95-.542.882-1.085-.068-.678-.136-1.356-.136-1.966 0-.61-.475-1.017-1.085-1.017-.542.068-.95.542-.95 1.084z" fill="#fff"/></g><defs><linearGradient id="paint0_linear_1765_1950" x1="215.808" y1="34.559" x2="52.736" y2="226.816" gradientUnits="userSpaceOnUse"><stop stop-color="#B6509E"/><stop offset="1" stop-color="#2EBAC6"/></linearGradient><linearGradient id="paint1_linear_1765_1950" x1="112.253" y1="61.706" x2="131.178" y2="156.981" gradientUnits="userSpaceOnUse"><stop stop-color="#27B0E6"/><stop offset=".52" stop-color="#C26BB3"/><stop offset="1" stop-color="#FA52A0"/></linearGradient><linearGradient id="paint2_linear_1765_1950" x1="112.253" y1="61.706" x2="131.178" y2="156.981" gradientUnits="userSpaceOnUse"><stop stop-color="#27B0E6"/><stop offset=".52" stop-color="#C26BB3"/><stop offset="1" stop-color="#FA52A0"/></linearGradient><clipPath id="clip0_1765_1950"><path fill="#fff" d="M0 0h256v256H0z"/></clipPath></defs></svg>