<svg width="256" height="256" viewBox="0 0 256 256" fill="none" xmlns="http://www.w3.org/2000/svg"><g clip-path="url(#clip0)"><path d="M128 256c70.692 0 128-57.308 128-128C256 57.308 198.692 0 128 0 57.308 0 0 57.307 0 128c0 70.692 57.307 128 128 128z" fill="#fff"/><path d="M128 256a129.005 129.005 0 01-25.8-2.6 127.32 127.32 0 01-45.77-19.261 128.366 128.366 0 01-46.375-56.315A127.355 127.355 0 012.6 153.8a129.251 129.251 0 010-51.593 127.309 127.309 0 0119.26-45.77 128.371 128.371 0 0156.317-46.378A127.327 127.327 0 01102.2 2.6a129.244 129.244 0 0151.593 0 127.311 127.311 0 0145.77 19.26 128.373 128.373 0 0146.375 56.316A127.33 127.33 0 01253.4 102.2a129.26 129.26 0 010 51.593 127.297 127.297 0 01-19.26 45.77 128.38 128.38 0 01-56.316 46.375A127.394 127.394 0 01153.8 253.4 129.012 129.012 0 01128 256zm0-242.287a115.145 115.145 0 00-23.033 2.322A113.656 113.656 0 0064.1 33.232a114.621 114.621 0 00-41.4 50.283 113.692 113.692 0 00-6.659 21.452 115.397 115.397 0 000 46.065 113.66 113.66 0 0017.2 40.866 114.631 114.631 0 0050.282 41.407 113.718 113.718 0 0021.453 6.658 115.394 115.394 0 0046.065 0 113.608 113.608 0 0040.866-17.2 114.62 114.62 0 0041.393-50.278 113.73 113.73 0 006.659-21.453 115.394 115.394 0 000-46.065 113.662 113.662 0 00-17.2-40.865A114.617 114.617 0 00172.485 22.7a113.752 113.752 0 00-21.453-6.659A115.148 115.148 0 00128 13.714v-.001z" fill="url(#paint0_linear)"/><path d="M128 171.661H74.367c-7.264 0-11.655-8.031-7.734-14.146l30.514-47.591a12.25 12.25 0 0110.312-5.638h41.082c4.174 0 8.06 2.125 10.312 5.638l30.514 47.591c3.921 6.115-.47 14.146-7.734 14.146H128zm5.48-109.473l12.816 19.583c2.666 4.074-.257 9.479-5.125 9.479h-26.11c-4.916 0-7.829-5.498-5.068-9.565l13.295-19.583c2.455-3.616 7.799-3.57 10.192.086z" fill="#fff"/><path d="M128 226c54.124 0 98-43.876 98-98s-43.876-98-98-98-98 43.876-98 98 43.876 98 98 98z" fill="#00A64F"/><path d="M128 226c54.124 0 98-43.876 98-98s-43.876-98-98-98-98 43.876-98 98 43.876 98 98 98z" fill="url(#paint1_radial)"/><path d="M128 226c54.124 0 98-43.876 98-98s-43.876-98-98-98-98 43.876-98 98 43.876 98 98 98z" fill="url(#paint2_radial)"/><path d="M128 226c54.124 0 98-43.876 98-98s-43.876-98-98-98-98 43.876-98 98 43.876 98 98 98z" fill="url(#paint3_radial)"/><path d="M145.7 120.4h-8.35V95.95h36.3v-15h-36.3V57.5h-18.7v23.55h-7.9c-17.05 0-31.3 8.6-31.3 27.45 0 16.45 12.5 26.8 30.85 26.8h8.35v24.45h-36.3v15h36.3v23.45h18.7v-23.55h7.9c17.1 0 31.3-8.6 31.3-27.45 0-16.45-12.5-26.8-30.85-26.8zm-27.05 14.9v-14.9h-5.95c-7.95 0-14.4-3.35-14.4-12.25 0-8.8 6.15-12.15 14.8-12.15h5.55v24.45h18.7v14.9l-18.7-.05zm24.25 24.45h-5.55V135.3h5.95c7.95 0 14.4 3.35 14.4 12.25 0 8.85-6.15 12.2-14.8 12.2z" fill="#fff"/></g><defs><radialGradient id="paint1_radial" cx="0" cy="0" r="1" gradientUnits="userSpaceOnUse" gradientTransform="translate(38.57 182.348) scale(156.791)"><stop offset=".09" stop-color="#00522C"/><stop offset="1" stop-color="#00522C" stop-opacity="0"/></radialGradient><radialGradient id="paint2_radial" cx="0" cy="0" r="1" gradientUnits="userSpaceOnUse" gradientTransform="rotate(-97.18 189.13 19.822) scale(156.798)"><stop offset=".09" stop-color="#00A64F"/><stop offset="1" stop-color="#00A64F" stop-opacity="0"/></radialGradient><radialGradient id="paint3_radial" cx="0" cy="0" r="1" gradientUnits="userSpaceOnUse" gradientTransform="translate(218.872 64.364) scale(130.181)"><stop offset=".098" stop-color="#8AD137"/><stop offset="1" stop-color="#8AD137" stop-opacity="0"/></radialGradient><linearGradient id="paint0_linear" x1="215.808" y1="34.559" x2="52.736" y2="226.816" gradientUnits="userSpaceOnUse"><stop stop-color="#B6509E"/><stop offset="1" stop-color="#2EBAC6"/></linearGradient><clipPath id="clip0"><path fill="#fff" d="M0 0h256v256H0z"/></clipPath></defs></svg>