<svg width="256" height="256" viewBox="0 0 256 256" fill="none" xmlns="http://www.w3.org/2000/svg"><g clip-path="url(#clip0_2_3573)"><path d="M128 256c70.692 0 128-57.308 128-128C256 57.308 198.692 0 128 0 57.308 0 0 57.307 0 128c0 70.692 57.307 128 128 128z" fill="#fff"/><path d="M128 256a129.005 129.005 0 01-25.8-2.6 127.32 127.32 0 01-45.77-19.261 128.366 128.366 0 01-46.375-56.315A127.355 127.355 0 012.6 153.8a129.251 129.251 0 010-51.593 127.309 127.309 0 0119.26-45.77 128.372 128.372 0 0156.317-46.378A127.328 127.328 0 01102.2 2.6a129.244 129.244 0 0151.593 0 127.31 127.31 0 0145.77 19.26 128.373 128.373 0 0146.375 56.316A127.33 127.33 0 01253.4 102.2a129.26 129.26 0 010 51.593 127.297 127.297 0 01-19.26 45.77 128.38 128.38 0 01-56.316 46.375A127.394 127.394 0 01153.8 253.4 129.012 129.012 0 01128 256zm0-242.287a115.145 115.145 0 00-23.033 2.322A113.656 113.656 0 0064.1 33.232a114.622 114.622 0 00-41.4 50.283 113.694 113.694 0 00-6.659 21.452 115.397 115.397 0 000 46.065 113.66 113.66 0 0017.2 40.866 114.631 114.631 0 0050.282 41.407 113.718 113.718 0 0021.453 6.658 115.394 115.394 0 0046.065 0 113.608 113.608 0 0040.866-17.2 114.62 114.62 0 0041.393-50.278 113.73 113.73 0 006.659-21.453 115.394 115.394 0 000-46.065 113.662 113.662 0 00-17.2-40.865A114.617 114.617 0 00172.485 22.7a113.752 113.752 0 00-21.453-6.659A115.148 115.148 0 00128 13.714v-.001z" fill="url(#paint0_linear_2_3573)"/><path d="M100.075 199.788c36.641 0 36.641-.546 42.854-2.39 8.119-2.41-22.923-23.9-42.854-23.9s-36.086 5.887-36.086 13.146c0 7.259 16.156 13.144 36.086 13.144z" fill="#000"/><path d="M183.275 88.013l1.685 1.816-1.473 1.992c-47.786 64.611-75.314 93.865-86.994 89.941-7.114-2.39-14.249-9.577-21.383-20.014-2.508-3.668-4.863-7.531-7-11.375-1.426-2.56-2.633-4.895-3.26-6.21a15.471 15.471 0 01-1.4-4.068l-.032-.163c-.112-.576-.15-.758-.234-1.073a65.145 65.145 0 0194.7-73.613l.248.155c7.869 5.489 16.25 13.026 25.143 22.612zm-28.45-17.62a59.187 59.187 0 00-85.877 66.939c.129.487.187.761.324 1.467l.028.144c.181.926.497 1.82.937 2.654.572 1.2 1.721 3.422 3.086 5.872 2.059 3.695 4.321 7.405 6.718 10.912 6.446 9.429 12.839 15.869 18.354 17.722 7.355 2.471 35.046-26.841 78.806-85.829a150.202 150.202 0 00-22.376-19.881z" fill="#000"/><path d="M154.825 70.394a59.187 59.187 0 00-85.877 66.938c.129.487.187.761.324 1.467l.028.144c.18.926.497 1.82.937 2.654.572 1.2 1.72 3.422 3.086 5.872 2.059 3.695 4.32 7.405 6.718 10.912 6.446 9.429 12.839 15.869 18.354 17.722 7.356 2.472 35.046-26.838 78.807-85.828a150.204 150.204 0 00-22.377-19.881z" fill="#EC1C79"/><path d="M138.07 199.19a65.116 65.116 0 01-60.164-40.2 65.122 65.122 0 1160.164 40.2zm0-5.974a59.143 59.143 0 0058.008-70.685 59.14 59.14 0 00-46.471-46.47 59.143 59.143 0 00-60.716 25.149 59.148 59.148 0 0049.179 92.006z" fill="#000"/><path d="M138.067 193.216a59.147 59.147 0 0041.826-100.967 59.146 59.146 0 10-41.826 100.967z" fill="#fff"/><path d="M64.88 115.554a3.346 3.346 0 012.993-5.985l9.559 4.78a3.34 3.34 0 011.716 1.933 3.347 3.347 0 01-4.708 4.052l-9.56-4.78zm-1.098 15.85a3.345 3.345 0 112.8-6.076l9.559 4.412a3.346 3.346 0 11-2.8 6.076l-9.559-4.412z" fill="#000"/><path fill-rule="evenodd" clip-rule="evenodd" d="M130.234 128.733l8.431 18.7 12.548-7.233h.01v-14.485l-20.989 3.018z" fill="#2BBDF7"/><path fill-rule="evenodd" clip-rule="evenodd" d="M167.456 114.86l-7.832-2.95-8.37-.676v44.991l12.557 7.237 9.911-20.284-6.251-19.613-.015-8.705z" fill="#2891F9"/><path fill-rule="evenodd" clip-rule="evenodd" d="M166.669 111.249l-2.908 7.235v44.986l12.559-7.235v-44.986h-9.651z" fill="#2BBDF7"/><path fill-rule="evenodd" clip-rule="evenodd" d="M163.813 104.001l-12.559 7.241 12.559 7.239 12.559-7.239-12.559-7.241z" fill="#2B6DEF"/><path fill-rule="evenodd" clip-rule="evenodd" d="M138.673 132.949l-12.557-14.055-25.116-7.66v44.986l12.555 7.239 3.588-24.9 8.973 1.63v-.008l12.559 7.237v-14.469h-.002z" fill="#2891F9"/><path fill-rule="evenodd" clip-rule="evenodd" d="M113.563 104.001L101 111.24l37.669 21.722 5.692-3.28 6.865-3.96-37.663-21.721z" fill="#2B6DEF"/><path fill-rule="evenodd" clip-rule="evenodd" d="M113.565 132.948v30.508l12.559-7.237v-16.032l-12.559-7.239z" fill="#2BBDF7"/></g><defs><linearGradient id="paint0_linear_2_3573" x1="215.808" y1="34.559" x2="52.736" y2="226.816" gradientUnits="userSpaceOnUse"><stop stop-color="#B6509E"/><stop offset="1" stop-color="#2EBAC6"/></linearGradient><clipPath id="clip0_2_3573"><path fill="#fff" d="M0 0h256v256H0z"/></clipPath></defs></svg>