<svg width="256" height="256" viewBox="0 0 256 256" fill="none" xmlns="http://www.w3.org/2000/svg"><g clip-path="url(#clip0_1751_1931)"><path d="M128 256c70.692 0 128-57.308 128-128C256 57.308 198.692 0 128 0 57.308 0 0 57.307 0 128c0 70.692 57.307 128 128 128z" fill="#fff"/><path d="M128 256a129.005 129.005 0 01-25.8-2.6 127.32 127.32 0 01-45.77-19.261 128.366 128.366 0 01-46.375-56.315A127.355 127.355 0 012.6 153.8a129.251 129.251 0 010-51.593 127.309 127.309 0 0119.26-45.77 128.371 128.371 0 0156.317-46.378A127.327 127.327 0 01102.2 2.6a129.244 129.244 0 0151.593 0 127.311 127.311 0 0145.77 19.26 128.373 128.373 0 0146.375 56.316A127.33 127.33 0 01253.4 102.2a129.26 129.26 0 010 51.593 127.297 127.297 0 01-19.26 45.77 128.38 128.38 0 01-56.316 46.375A127.394 127.394 0 01153.8 253.4 129.012 129.012 0 01128 256zm0-242.287a115.145 115.145 0 00-23.033 2.322A113.656 113.656 0 0064.1 33.232a114.621 114.621 0 00-41.4 50.283 113.692 113.692 0 00-6.659 21.452 115.397 115.397 0 000 46.065 113.66 113.66 0 0017.2 40.866 114.631 114.631 0 0050.282 41.407 113.718 113.718 0 0021.453 6.658 115.394 115.394 0 0046.065 0 113.608 113.608 0 0040.866-17.2 114.62 114.62 0 0041.393-50.278 113.73 113.73 0 006.659-21.453 115.394 115.394 0 000-46.065 113.662 113.662 0 00-17.2-40.865A114.617 114.617 0 00172.485 22.7a113.752 113.752 0 00-21.453-6.659A115.148 115.148 0 00128 13.714v-.001z" fill="url(#paint0_linear_1751_1931)"/><path d="M128 228c55.228 0 100-44.772 100-100S183.228 28 128 28 28 72.772 28 128s44.772 100 100 100z" fill="#fff"/><path d="M99.122 201.045c37.388 0 37.388-.557 43.728-2.438 8.281-2.459-23.391-24.385-43.728-24.385-20.338 0-36.823 6.004-36.823 13.41 0 7.406 16.485 13.413 36.823 13.413z" fill="#000"/><path d="M184.02 86.995l1.719 1.853-1.503 2.03c-48.762 65.931-76.852 95.782-88.77 91.777-7.259-2.438-14.54-9.772-21.82-20.422-2.558-3.743-4.96-7.685-7.147-11.608-1.455-2.612-2.687-4.995-3.326-6.336a15.792 15.792 0 01-1.434-4.151l-.033-.166a15.144 15.144 0 00-.239-1.094 66.475 66.475 0 0196.629-75.115l.253.156c8.04 5.599 16.597 13.29 25.671 23.076zM154.99 69.01a60.39 60.39 0 00-87.63 68.305c.132.497.192.777.331 1.498l.03.147c.184.945.506 1.857.955 2.708.583 1.224 1.756 3.491 3.149 5.992 2.1 3.77 4.409 7.556 6.855 11.135 6.577 9.621 13.1 16.193 18.728 18.083 7.505 2.521 35.761-27.389 80.415-87.578-8.107-8.559-15.718-15.322-22.833-20.29z" fill="#000"/><path d="M154.989 69.01a60.392 60.392 0 00-87.629 68.305c.132.497.191.777.331 1.498l.03.147c.184.944.506 1.856.955 2.706.583 1.225 1.756 3.492 3.149 5.993 2.1 3.77 4.408 7.556 6.855 11.134 6.577 9.622 13.1 16.193 18.728 18.084 7.505 2.521 35.761-27.389 80.414-87.579-8.107-8.558-15.718-15.32-22.833-20.288z" fill="#EC1C79"/><path d="M137.893 200.436a66.448 66.448 0 01-65.173-79.414 66.45 66.45 0 1165.173 79.414zm0-6.094a60.355 60.355 0 0011.775-119.546 60.357 60.357 0 00-61.957 25.661 60.354 60.354 0 007.505 76.206 60.358 60.358 0 0042.677 17.677v.002z" fill="#000"/><path d="M137.892 194.34a60.355 60.355 0 0011.775-119.547 60.352 60.352 0 00-67.534 82.289 60.358 60.358 0 0032.663 32.664 60.35 60.35 0 0023.096 4.594z" fill="#fff"/><circle cx="137.695" cy="133.789" r="60.156" fill="#fff"/><path d="M158.32 97.695c-8.519 0-15.468 6.971-15.693 15.516v17.315c-1.569 0-3.138.225-4.932.225-1.793 0-3.363 0-4.932.225v-17.765c0-8.545-7.174-15.516-15.917-15.29-8.295 0-15.02 6.97-15.244 15.29v41.376c.224 8.544 7.173 15.516 15.917 15.291 8.519-.225 15.244-6.971 15.244-15.291v-17.315c1.569 0 3.139-.225 4.932-.225 1.794 0 3.363 0 4.932-.225v17.54c.225 8.545 7.174 15.516 15.917 15.291 8.52-.225 15.245-6.971 15.245-15.291v-41.151c0-8.545-6.95-15.516-15.469-15.516zm-41.026 6.297c5.157 0 9.192 4.047 9.192 9.219v18.214c-4.484.675-8.967 2.024-13.227 3.823-1.793.899-3.587 1.799-5.156 3.148v-25.185c0-4.947 4.035-9.219 9.191-9.219zm9.192 50.595c0 5.171-4.035 9.219-9.192 9.219-5.156 0-9.191-4.048-9.191-9.219v-4.048c0-3.598 2.914-7.196 7.846-9.219 3.363-1.574 6.95-2.474 10.761-3.149l-.224 16.416zm31.834 9.219c-5.156 0-9.191-4.048-9.191-9.219v-18.214c4.483-.675 8.967-2.024 13.226-3.823 1.794-.9 3.588-1.799 5.157-3.148v25.185c0 5.171-4.26 9.219-9.192 9.219zm1.345-37.103c-3.363 1.574-6.949 2.474-10.761 3.148v-16.64c0-5.172 4.036-9.219 9.192-9.219 5.156 0 9.192 4.047 9.192 9.219v4.048c.224 3.822-2.691 7.195-7.623 9.444z" fill="url(#paint1_linear_1751_1931)"/><path d="M63.21 115.093a3.416 3.416 0 01.475-6.249 3.419 3.419 0 012.576.142l9.754 4.877a3.417 3.417 0 01.738 5.656 3.423 3.423 0 01-2.501.818 3.39 3.39 0 01-1.29-.367l-9.752-4.877zm-1.123 16.173a3.416 3.416 0 01.231-6.33 3.412 3.412 0 012.63.13l9.754 4.502a3.414 3.414 0 11-2.86 6.199l-9.755-4.501z" fill="#000"/></g><defs><linearGradient id="paint0_linear_1751_1931" x1="215.808" y1="34.559" x2="52.736" y2="226.816" gradientUnits="userSpaceOnUse"><stop stop-color="#B6509E"/><stop offset="1" stop-color="#2EBAC6"/></linearGradient><linearGradient id="paint1_linear_1751_1931" x1="137.695" y1="97.695" x2="87.774" y2="147.465" gradientUnits="userSpaceOnUse"><stop stop-color="#00E8A2"/><stop offset="1" stop-color="#00ADE8"/></linearGradient><clipPath id="clip0_1751_1931"><path fill="#fff" d="M0 0h256v256H0z"/></clipPath></defs></svg>