<svg width="209" height="61" viewBox="0 0 209 61" fill="none" xmlns="http://www.w3.org/2000/svg"><path d="M49.906 26c0 13.255-24 24-24 24s-24-10.745-24-24 10.745-24 24-24 24 10.745 24 24z" fill="#000"/><path d="M25.906 50s24-10.745 24-24-10.745-24-24-24-24 10.745-24 24 24 24 24 24zm0 0v9.5h-10 19.5m-9.5-9.5V37m0-19v12m0-12l5.5-4m-5.5 4l-4.5-4.5m4.5 23.5l9.5-4.5m-9.5 4.5v-7m0 0l-11-7" stroke="url(#paint0_linear_185_151)" stroke-width="2.5"/><path d="M89.949 44.36c-1.512 0-2.832-.3-3.96-.9a6.478 6.478 0 01-2.592-2.556c-.6-1.104-.9-2.4-.9-3.888V24.704c0-1.512.3-2.82.9-3.924a6.242 6.242 0 012.592-2.52c1.128-.6 2.448-.9 3.96-.9 1.536 0 2.856.312 3.96.936a6.36 6.36 0 012.592 2.628c.624 1.128.936 2.46.936 3.996H95.06c0-1.704-.456-3.036-1.368-3.996-.912-.96-2.16-1.44-3.744-1.44-1.56 0-2.796.468-3.708 1.404-.912.912-1.368 2.184-1.368 3.816v12.312c0 1.632.456 2.916 1.368 3.852.912.912 2.148 1.368 3.708 1.368 1.608 0 2.856-.48 3.744-1.44.912-.984 1.368-2.316 1.368-3.996h2.376c0 1.536-.312 2.868-.936 3.996a6.36 6.36 0 01-2.592 2.628c-1.104.624-2.424.936-3.96.936zm21.406 0c-1.488 0-2.784-.288-3.888-.864a6.304 6.304 0 01-2.52-2.556c-.576-1.104-.864-2.412-.864-3.924V24.704c0-1.512.288-2.808.864-3.888a6.304 6.304 0 012.52-2.556c1.104-.6 2.4-.9 3.888-.9s2.772.3 3.852.9a6.021 6.021 0 012.52 2.556c.6 1.08.9 2.376.9 3.888v12.312c0 1.512-.3 2.82-.9 3.924a6.021 6.021 0 01-2.52 2.556c-1.08.576-2.364.864-3.852.864zm0-2.124c1.56 0 2.76-.456 3.6-1.368.864-.912 1.296-2.196 1.296-3.852V24.704c0-1.656-.432-2.94-1.296-3.852-.864-.912-2.064-1.368-3.6-1.368s-2.736.456-3.6 1.368c-.864.912-1.296 2.196-1.296 3.852v12.312c0 1.656.42 2.94 1.26 3.852.864.912 2.076 1.368 3.636 1.368zM125.525 44v-2.52l8.244-8.46c1.512-1.584 2.628-3.024 3.348-4.32.72-1.32 1.08-2.616 1.08-3.888 0-1.656-.48-2.964-1.44-3.924s-2.256-1.44-3.888-1.44c-1.704 0-3.048.492-4.032 1.476-.984.96-1.476 2.28-1.476 3.96h-2.376c.024-1.536.36-2.868 1.008-3.996a6.714 6.714 0 012.772-2.592c1.176-.624 2.544-.936 4.104-.936s2.916.3 4.068.9c1.176.6 2.076 1.452 2.7 2.556.624 1.08.936 2.388.936 3.924 0 1.56-.432 3.132-1.296 4.716-.84 1.584-2.172 3.288-3.996 5.112l-7.236 7.272h13.104V44h-15.624zm23.242-10.836V31.04h11.52v2.124h-11.52zM169.165 44V17.72h15.048v2.16h-12.708v9.792h11.592v2.196h-11.556V44h-2.376zm21.009 0v-2.16h7.164V26.36h-6.264V24.2h8.64v17.64h6.732V44h-16.272zm8.064-23.508c-.696 0-1.248-.18-1.656-.54-.408-.384-.612-.9-.612-1.548s.204-1.164.612-1.548c.408-.384.96-.576 1.656-.576s1.248.192 1.656.576c.408.384.612.9.612 1.548s-.204 1.164-.612 1.548c-.408.36-.96.54-1.656.54z" fill="url(#paint1_linear_185_151)"/><defs><linearGradient id="paint0_linear_185_151" x1="25.906" y1="2" x2="25.906" y2="59.5" gradientUnits="userSpaceOnUse"><stop stop-color="#2CFF04"/><stop offset="1" stop-color="#FFE600"/></linearGradient><linearGradient id="paint1_linear_185_151" x1="143.969" y1="7" x2="143.969" y2="55" gradientUnits="userSpaceOnUse"><stop stop-color="#24E500"/><stop offset="1" stop-color="#FFE600"/></linearGradient></defs></svg>